<svg width="128" height="128" viewBox="0 0 128 128" fill="none" xmlns="http://www.w3.org/2000/svg">
<path d="M86.4004 45.9998C89.7603 45.9998 91.4402 46.0002 92.7236 46.6541C93.8526 47.2293 94.7705 48.1472 95.3457 49.2761C95.9997 50.5596 96 52.24 96 55.6003V80.4001C96 83.7604 95.9997 85.4409 95.3457 86.7244C94.7704 87.8531 93.8525 88.7713 92.7236 89.3464C91.4403 90.0002 89.7601 89.9998 86.4004 89.9998H41.5996C38.2399 89.9998 36.5597 90.0002 35.2764 89.3464C34.1475 88.7713 33.2296 87.8531 32.6543 86.7244C32.0003 85.4409 32 83.7604 32 80.4001V45.9998C32 44.14 31.9997 43.21 32.2041 42.447C32.7589 40.3765 34.3767 38.7596 36.4473 38.2048C37.2102 38.0004 38.1398 37.9998 39.999 37.9998H48C56 37.9998 56 45.9998 64 45.9998H86.4004Z" fill="#BDCB93"/>
<path d="M30 45.9997C30 44.2694 29.9826 43.011 30.2724 41.9294L30.3457 41.6726C31.1474 39.0349 33.2556 36.9897 35.9296 36.2732L36.1347 36.2224C37.1699 35.9856 38.3755 35.9997 39.999 35.9997H48L48.4501 36.0075C53.0358 36.1598 55.4561 38.6278 57.414 40.5857C59.393 42.5647 60.8793 43.9997 64 43.9997L87.582 44.0007C88.7095 44.0045 89.6783 44.0211 90.5039 44.0886C91.628 44.1806 92.6614 44.3774 93.6318 44.8718L93.9101 45.0212C95.2878 45.7932 96.4088 46.9567 97.1279 48.3679L97.2998 48.7351C97.67 49.5984 97.8306 50.5131 97.9111 51.4968C98.0011 52.5977 98 53.9533 98 55.6003L97.999 81.5818C97.9952 82.7093 97.9786 83.6781 97.9111 84.5036C97.8306 85.4874 97.67 86.402 97.2998 87.2654L97.1279 87.6325C96.4089 89.0434 95.2878 90.2073 93.9101 90.9792L93.6318 91.1286C92.6611 91.6231 91.6269 91.8201 90.5029 91.9118C89.6774 91.9792 88.7085 91.995 87.581 91.9988L41.5996 91.9997C39.953 91.9997 38.5976 92.0016 37.497 91.9118C36.5135 91.8316 35.5988 91.6708 34.7353 91.3005L34.3681 91.1286C32.9569 90.4096 31.7933 89.2882 31.0214 87.9109L30.872 87.6325C30.3775 86.662 30.1808 85.6279 30.0888 84.5036C30.0213 83.6781 30.0047 82.7093 30.0009 81.5818L30 45.9997ZM34.0009 81.5866C34.0048 82.679 34.0199 83.5033 34.0751 84.1784C34.1469 85.055 34.2771 85.5033 34.4365 85.8161L34.5908 86.0915C34.9752 86.7182 35.5262 87.2287 36.1845 87.5642L36.3085 87.6228C36.6158 87.7552 37.0552 87.862 37.8222 87.9245C38.7224 87.998 39.8868 87.9997 41.5996 87.9997L87.5869 87.9988C88.679 87.9949 89.5026 87.9796 90.1777 87.9245C91.0543 87.853 91.5028 87.7234 91.8154 87.5642L92.0908 87.4099C92.7172 87.0256 93.2278 86.4747 93.5634 85.8161L93.622 85.6921C93.7546 85.3847 93.862 84.9455 93.9248 84.1784C93.98 83.5033 93.9951 82.679 93.999 81.5866L94 55.6003C94 53.8873 93.9984 52.7222 93.9248 51.822C93.862 51.055 93.7547 50.6157 93.622 50.3083L93.5634 50.1843C93.2278 49.5257 92.7174 48.9749 92.0908 48.5906L91.8154 48.4363C91.5024 48.2769 91.0541 48.1466 90.1777 48.0749C89.5028 48.0197 88.679 48.0046 87.5869 48.0007L64 47.9997C59.1206 47.9997 56.6069 45.4348 54.5859 43.4138C52.6688 41.4967 51.214 40.0898 48.288 40.0036L48 39.9997H39.999C38.2609 39.9997 37.5821 40.0132 37.1416 40.0964L36.9648 40.1365C35.6702 40.4833 34.642 41.4529 34.2138 42.7097L34.1357 42.9646C34.0166 43.409 34 44.0106 34 45.9997L34.0009 81.5866Z" fill="#406417"/>
</svg>
