<?xml version="1.0" encoding="UTF-8" standalone="no"?>
<!DOCTYPE svg PUBLIC "-//W3C//DTD SVG 1.1//EN" "http://www.w3.org/Graphics/SVG/1.1/DTD/svg11.dtd">
<svg width="100%" height="100%" viewBox="0 0 1280 720" version="1.1" xmlns="http://www.w3.org/2000/svg" xmlns:xlink="http://www.w3.org/1999/xlink" xml:space="preserve" xmlns:serif="http://www.serif.com/" style="fill-rule:evenodd;clip-rule:evenodd;stroke-linejoin:round;stroke-miterlimit:2;">
    <rect id="Artboard1" x="0" y="0" width="1280" height="720" style="fill:none;"/>
    <g id="Artboard11" serif:id="Artboard1">
        <g transform="matrix(1.28786,-0.425842,0.377552,1.14182,-392.174,235.627)">
            <path d="M713,425.913C713,404.436 697.541,387 678.5,387C659.459,387 644,404.436 644,425.913L644,495.087C644,516.564 659.459,534 678.5,534C697.541,534 713,516.564 713,495.087L713,425.913Z" style="fill:rgb(13,60,178);"/>
        </g>
        <path d="M646.851,428.163L668.408,428.676C669.849,430.526 670.957,432.747 671.587,435.232C673.755,443.793 669.434,452.283 661.944,454.18C654.453,456.077 646.612,450.668 644.444,442.107C643.14,436.961 644.182,431.84 646.851,428.163Z" style="fill:white;"/>
        <path d="M640.458,587.886C665.229,587.886 686.825,582.759 705.248,572.503C723.67,562.248 738.022,547.854 748.303,529.321C758.584,510.788 763.724,489.008 763.724,463.982L763.724,256.013C763.724,231.102 758.584,209.352 748.305,190.763C738.026,172.174 723.674,157.752 705.25,147.497C686.826,137.241 665.229,132.114 640.458,132.114C615.506,132.114 593.749,137.241 575.187,147.497C556.625,157.752 542.255,172.174 532.077,190.763C521.898,209.352 516.809,231.102 516.809,256.013L516.809,463.982C516.809,489.008 521.917,510.788 532.134,529.321C542.351,547.854 556.721,562.248 575.245,572.503C593.768,582.759 615.506,587.886 640.458,587.886ZM382.728,573.665C382.728,575.787 383.571,577.821 385.071,579.322C386.571,580.822 388.606,581.665 390.728,581.665C406.495,581.665 441.422,581.665 457.19,581.665C459.311,581.665 461.346,580.822 462.846,579.322C464.347,577.821 465.19,575.787 465.19,573.665C465.19,557.867 465.19,522.832 465.19,507.035C465.19,502.617 468.771,499.035 473.19,499.035L493.711,499.035C495.833,499.035 497.868,498.192 499.368,496.692C500.868,495.192 501.711,493.157 501.711,491.035L501.711,438.019C501.711,435.897 500.868,433.863 499.368,432.362C497.868,430.862 495.833,430.019 493.711,430.019L473.19,430.019C468.771,430.019 465.19,426.437 465.19,422.019C465.19,380.304 465.19,188.05 465.19,146.335C465.19,141.917 461.608,138.335 457.19,138.335C433.443,138.335 363.742,138.335 343.274,138.335C339.856,138.335 336.815,140.507 335.706,143.74C327.622,167.318 320.096,189.364 313.131,209.878C305.636,231.952 298.644,252.758 292.155,272.296C285.667,291.834 279.588,310.467 273.919,328.195C268.249,345.923 262.884,363.12 257.823,379.787C252.874,396.084 248.001,412.363 243.203,428.623C242.987,429.358 242.877,430.12 242.877,430.886C242.877,437.859 242.877,474.572 242.877,491.035C242.877,495.453 246.458,499.035 250.877,499.035C275.518,499.035 350.086,499.035 374.728,499.035C379.146,499.035 382.728,502.617 382.728,507.035C382.728,522.832 382.728,557.867 382.728,573.665ZM918.14,573.665C918.14,575.787 918.983,577.821 920.483,579.322C921.983,580.822 924.018,581.665 926.14,581.665C941.908,581.665 976.834,581.665 992.602,581.665C994.723,581.665 996.758,580.822 998.259,579.322C999.759,577.821 1000.6,575.787 1000.6,573.665C1000.6,557.867 1000.6,522.832 1000.6,507.035C1000.6,502.617 1004.18,499.035 1008.6,499.035L1029.12,499.035C1031.25,499.035 1033.28,498.192 1034.78,496.692C1036.28,495.192 1037.12,493.157 1037.12,491.035L1037.12,438.019C1037.12,435.897 1036.28,433.863 1034.78,432.362C1033.28,430.862 1031.25,430.019 1029.12,430.019L1008.6,430.019C1004.18,430.019 1000.6,426.437 1000.6,422.019C1000.6,380.304 1000.6,188.05 1000.6,146.335C1000.6,141.917 997.02,138.335 992.602,138.335C968.855,138.335 899.154,138.335 878.686,138.335C875.268,138.335 872.227,140.507 871.119,143.74C863.034,167.318 855.509,189.364 848.543,209.878C841.048,231.952 834.056,252.758 827.568,272.296C821.079,291.834 815,310.467 809.331,328.195C803.661,345.923 798.296,363.12 793.235,379.787C788.286,396.084 783.413,412.363 778.616,428.623C778.399,429.358 778.289,430.12 778.289,430.886C778.289,437.859 778.289,474.572 778.289,491.035C778.289,495.453 781.87,499.035 786.289,499.035C810.93,499.035 885.498,499.035 910.14,499.035C914.558,499.035 918.14,502.617 918.14,507.035C918.14,522.832 918.14,557.867 918.14,573.665ZM640.276,517.963C632.855,517.963 626.525,516.106 621.288,512.392C616.051,508.678 612.048,503.432 609.28,496.654C606.511,489.876 605.127,481.885 605.127,472.681L605.127,247.305C605.127,238.101 606.511,230.111 609.28,223.336C612.048,216.561 616.051,211.319 621.288,207.608C626.525,203.897 632.855,202.042 640.276,202.042C647.771,202.042 654.132,203.867 659.36,207.517C664.588,211.167 668.56,216.38 671.277,223.156C673.994,229.933 675.353,237.983 675.353,247.305L675.353,472.681C675.353,481.811 673.994,489.766 671.277,496.546C668.56,503.326 664.588,508.59 659.36,512.339C654.132,516.089 647.771,517.963 640.276,517.963ZM384.933,424.349C384.932,428.767 381.35,432.347 376.933,432.347C363.374,432.347 336.047,432.347 322.646,432.347C320.787,432.347 319.033,431.486 317.897,430.014C316.761,428.543 316.371,426.628 316.841,424.829C320.072,412.496 323.899,398.049 326.915,386.813C330.572,373.191 334.391,359.304 338.374,345.152C342.357,331.001 346.604,316.33 351.117,301.139C355.629,285.949 360.442,270.076 365.557,253.519C370.671,236.962 376.233,219.453 382.243,200.99L384.979,200.99C384.979,200.99 384.941,383.599 384.933,424.349ZM920.345,424.349C920.344,428.767 916.762,432.347 912.345,432.347C898.786,432.347 871.459,432.347 858.058,432.347C856.199,432.347 854.445,431.486 853.309,430.014C852.173,428.543 851.783,426.628 852.253,424.829C855.484,412.496 859.312,398.049 862.328,386.813C865.984,373.191 869.803,359.304 873.786,345.152C877.769,331.001 882.017,316.33 886.529,301.139C891.041,285.949 895.855,270.076 900.969,253.519C906.083,236.962 911.645,219.453 917.655,200.99L920.391,200.99C920.391,200.99 920.353,383.599 920.345,424.349Z" style="fill:rgb(140,140,140);fill-rule:nonzero;"/>
        <path d="M763.724,453.671L763.724,463.982C763.724,489.008 758.584,510.788 748.303,529.321C738.022,547.854 723.67,562.248 705.248,572.503C686.825,582.759 665.229,587.886 640.458,587.886C615.506,587.886 593.768,582.759 575.245,572.503C556.721,562.248 542.351,547.854 532.134,529.321C528.511,522.749 525.531,515.769 523.229,508.371C551.645,506.924 580.696,503.665 610.09,498.481C612.796,504.386 616.533,509.02 621.288,512.392C626.525,516.106 632.855,517.963 640.276,517.963C647.771,517.963 654.132,516.089 659.36,512.339C664.588,508.59 668.56,503.326 671.277,496.546C672.784,492.786 673.873,488.664 674.497,484.175C705.664,475.778 735.495,465.524 763.724,453.671ZM242.877,453.195C303.253,486.206 380.198,505.838 465.19,508.866L465.19,573.665C465.19,575.787 464.347,577.821 462.846,579.322C461.346,580.822 459.311,581.665 457.19,581.665C441.422,581.665 406.495,581.665 390.728,581.665C388.606,581.665 386.571,580.822 385.071,579.322C383.571,577.821 382.728,575.787 382.728,573.665C382.728,557.867 382.728,522.832 382.728,507.035C382.728,502.617 379.146,499.035 374.728,499.035C350.086,499.035 275.518,499.035 250.877,499.035C246.458,499.035 242.877,495.453 242.877,491.035L242.877,453.195ZM1000.6,264.608L1000.6,422.019C1000.6,426.437 1004.18,430.019 1008.6,430.019L1029.12,430.019C1031.25,430.019 1033.28,430.862 1034.78,432.362C1036.28,433.863 1037.12,435.897 1037.12,438.019L1037.12,491.035C1037.12,493.157 1036.28,495.192 1034.78,496.692C1033.28,498.192 1031.25,499.035 1029.12,499.035L1008.6,499.035C1004.18,499.035 1000.6,502.617 1000.6,507.035C1000.6,522.832 1000.6,557.867 1000.6,573.665C1000.6,575.787 999.759,577.821 998.259,579.322C996.758,580.822 994.723,581.665 992.602,581.665C976.834,581.665 941.908,581.665 926.14,581.665C924.018,581.665 921.983,580.822 920.483,579.322C918.983,577.821 918.14,575.787 918.14,573.665C918.14,557.867 918.14,522.832 918.14,507.035C918.14,502.617 914.558,499.035 910.14,499.035C885.498,499.035 810.93,499.035 786.289,499.035C781.87,499.035 778.289,495.453 778.289,491.035L778.289,447.364C806.538,434.721 833.05,420.478 857.527,404.928L852.253,424.829C851.783,426.628 852.173,428.543 853.309,430.014C854.445,431.486 856.199,432.347 858.058,432.347C871.459,432.347 898.786,432.347 912.345,432.347C916.762,432.347 920.344,428.767 920.345,424.349L920.359,358.339C953.715,329.409 980.902,297.74 1000.6,264.608Z" style="fill:rgb(119,119,119);"/>
        <path d="M615,480L613.218,396.446C598.378,408.319 591.697,428.606 598.01,447.699L607.889,477.576L615,480Z" style="fill:rgb(13,60,178);"/>
        <path d="M608.302,439.797C604.564,413.567 626.429,392.057 652.289,399.751C655.465,400.696 658.806,398.887 659.751,395.711C660.696,392.535 658.887,389.194 655.711,388.249C621.07,377.943 591.414,406.353 596.422,441.49C596.889,444.771 599.928,447.051 603.208,446.584C606.489,446.116 608.769,443.078 608.302,439.797Z" style="fill:white;fill-opacity:0.3;"/>
        <path d="M602.85,462.336L598.01,447.699C597.244,445.382 596.669,443.047 596.278,440.71C597.369,439.922 598.595,439.337 599.935,438.997C606.89,437.236 614.298,442.755 616.466,451.316C617.354,454.823 617.226,458.3 616.272,461.298C613.272,460.441 609.646,460.384 605.938,461.317C604.859,461.589 603.826,461.931 602.85,462.336Z" style="fill:white;"/>
        <g transform="matrix(1,0,0,1,0.000807959,3)">
            <path d="M613.651,491.221L637.978,477.276C641.812,475.079 643.138,470.19 640.941,466.357C638.743,462.524 633.855,461.197 630.022,463.395L605.694,477.34C601.861,479.537 600.535,484.426 602.732,488.259C604.929,492.092 609.818,493.418 613.651,491.221Z" style="fill:rgb(240,164,14);"/>
        </g>
        <path d="M603.694,488.764L636.508,477.932C640.703,476.547 642.982,472.023 641.597,467.828C640.212,463.632 635.688,461.354 631.492,462.739L598.678,473.571C594.483,474.956 592.204,479.48 593.589,483.675C594.974,487.871 599.498,490.149 603.694,488.764Z" style="fill:rgb(255,202,0);"/>
        <g transform="matrix(1,0,0,1,-33.8379,-2.79841)">
            <path d="M623.728,335C623.728,330.875 627.744,328.52 631.893,327.71C636.397,326.83 641.629,327.76 644.028,331.92C649.053,340.632 641.747,347.879 637.251,350.875C632.185,354.252 631.286,358.872 632.13,363.303C632.766,366.638 634.605,369.843 635.875,371.749C637.393,374.027 640.471,374.643 642.749,373.125C645.027,371.607 645.643,368.529 644.125,366.251C643.511,365.33 642.629,363.93 642.114,362.371C641.755,361.287 641.468,359.979 642.749,359.125C650.261,354.119 661.012,341.525 652.615,326.967C647.204,317.585 634.595,315.529 625.273,319.397C618.591,322.17 613.815,327.757 613.815,335C613.815,337.738 616.034,339.957 618.772,339.957C621.509,339.957 623.728,337.738 623.728,335Z" style="fill:rgb(240,48,14);"/>
        </g>
        <g transform="matrix(1,0,0,1,0.37182,0.561938)">
            <path d="M585.655,331.705C585.41,329.684 586.256,327.391 587.905,325.405C590.748,321.981 595.96,319.576 603.059,320.394C604.705,320.583 606.193,319.402 606.382,317.756C606.572,316.11 605.391,314.623 603.745,314.433C587.243,312.532 578.717,324.327 579.698,332.427C579.898,334.072 581.393,335.244 583.038,335.044C584.682,334.845 585.854,333.35 585.655,331.705Z" style="fill:white;fill-opacity:0.3;"/>
        </g>
        <path d="M604.469,359.914C603.132,356.471 605.061,353.27 610.32,350.694C611.808,349.965 612.423,348.168 611.694,346.68C610.965,345.192 609.168,344.577 607.68,345.306C598.555,349.777 596.555,356.111 598.876,362.086C599.475,363.63 601.213,364.396 602.758,363.797C604.302,363.197 605.068,361.459 604.469,359.914Z" style="fill:white;fill-opacity:0.3;"/>
        <g transform="matrix(1,0,0,1,-24.3408,6.20159)">
            <circle cx="637.001" cy="372.001" r="5.001" style="fill:rgb(240,48,14);"/>
        </g>
        <g transform="matrix(1,0,0,1,-1,22.1581)">
            <path d="M175.986,86.439C164.428,86.122 154.235,88.088 145.399,91.844C128.268,99.126 115.776,113.185 108.305,132.245C88.654,182.386 105.509,270.614 159.319,344.09C163.234,349.437 170.743,350.597 176.09,346.681C181.437,342.766 182.597,335.257 178.681,329.91C138.241,274.69 119.713,210.566 125.063,164.51C127.429,144.144 134.364,127.506 147.215,118.205C150.583,115.767 154.324,113.883 158.437,112.574C155.747,117.756 153.536,122.905 151.837,127.944C141.882,157.468 148.534,183.296 173.522,194.886C211.972,212.72 252.998,198.478 267.979,175.67C283.241,152.435 276.852,115.099 208.764,92.606C207.136,92.068 205.526,91.567 203.936,91.102C236.473,58.696 289.443,35.837 346.634,58.177C352.807,60.589 359.766,57.539 362.177,51.366C364.589,45.193 361.539,38.234 355.366,35.823C281.036,6.787 212.709,42.282 175.986,86.439ZM186.829,111.647C186.096,112.727 185.387,113.807 184.702,114.888C176.234,128.252 171.251,141.725 171.471,153.247C171.636,161.966 175.286,169.248 183.621,173.114C202.847,182.032 223.105,180.157 236.823,172.357C244.25,168.134 249.844,162.276 250.733,155.245C251.444,149.628 248.786,143.758 242.924,137.847C234.798,129.652 221.272,122.014 201.236,115.394C196.184,113.726 191.382,112.48 186.829,111.647Z" style="fill:rgb(119,119,119);"/>
        </g>
        <g transform="matrix(1,0,0,1,-13,14.1744)">
            <path d="M939.479,673.491C980.59,632.44 1016.97,632.741 1051.9,634.083C1092.71,635.652 1131.73,638.07 1173.48,596.378C1232.05,537.889 1239.1,474.572 1220.95,437.959C1207.31,410.451 1180.14,395.962 1146.92,404.778C1123.42,411.017 1111.08,422.502 1105.45,434.021C1095.76,453.849 1104.82,475.682 1119.25,485.181C1130.99,492.903 1145.9,493.572 1158.49,480.985C1163.17,476.299 1163.17,468.701 1158.49,464.015C1153.8,459.328 1146.2,459.328 1141.52,464.015C1139.94,465.586 1138.34,466.524 1136.65,466.558C1133.63,466.619 1130.97,464.453 1128.95,461.798C1125.07,456.708 1123.73,448.944 1128.4,442.196C1132.55,436.203 1140.52,431.308 1153.08,427.975C1173.86,422.459 1190.91,431.41 1199.45,448.621C1214.56,479.092 1205.27,530.716 1156.52,579.395C1121.05,614.818 1087.49,611.433 1052.82,610.101C1012.26,608.543 970.255,608.844 922.521,656.509C917.831,661.191 917.826,668.789 922.509,673.479C927.191,678.169 934.789,678.174 939.479,673.491Z" style="fill:rgb(119,119,119);"/>
        </g>
    </g>
</svg>
