<?xml version="1.0" encoding="UTF-8"?>
<svg width="957px" height="221px" viewBox="0 0 957 221" version="1.1" xmlns="http://www.w3.org/2000/svg" xmlns:xlink="http://www.w3.org/1999/xlink">
    <title>Combined-Shape</title>
    <g id="Page-1" stroke="none" stroke-width="1" fill="none" fill-rule="evenodd">
        <g id="big_title" fill="#F5F5F5" fill-rule="nonzero">
            <path d="M46,175.909091 L46,45 L102.505682,45 C112.221591,45 120.723011,46.9176136 128.009943,50.7528409 C135.296875,54.5880682 140.964489,59.9786932 145.012784,66.9247159 C149.06108,73.8707386 151.085227,81.9886364 151.085227,91.2784091 C151.085227,100.653409 149.007812,108.771307 144.852983,115.632102 C140.698153,122.492898 134.881392,127.776989 127.402699,131.484375 C119.924006,135.191761 111.198864,137.045455 101.227273,137.045455 L67.4772727,137.045455 L67.4772727,109.431818 L94.0681818,109.431818 C98.2443182,109.431818 101.81321,108.696733 104.774858,107.226562 C107.736506,105.756392 110.016335,103.65767 111.614347,100.930398 C113.212358,98.203125 114.011364,94.9857955 114.011364,91.2784091 C114.011364,87.5284091 113.212358,84.321733 111.614347,81.6583807 C110.016335,78.9950284 107.736506,76.9495739 104.774858,75.522017 C101.81321,74.0944602 98.2443182,73.3806818 94.0681818,73.3806818 L81.5397727,73.3806818 L81.5397727,175.909091 L46,175.909091 Z M163.045,175.909091 L163.045,45 L198.584773,45 L198.584773,96.1363636 L245.630227,96.1363636 L245.630227,45 L281.17,45 L281.17,175.909091 L245.630227,175.909091 L245.630227,124.772727 L198.584773,124.772727 L198.584773,175.909091 L163.045,175.909091 Z M296.965,175.909091 L296.965,45 L332.504773,45 L332.504773,147.272727 L385.430909,147.272727 L385.430909,175.909091 L296.965,175.909091 Z M434.208864,45 L434.208864,175.909091 L398.669091,175.909091 L398.669091,45 L434.208864,45 Z M488.100455,45 L509.577727,83.0965909 L510.600455,83.0965909 L532.333409,45 L571.964091,45 L532.844773,110.454545 L573.498182,175.909091 L532.844773,175.909091 L510.600455,137.045455 L509.577727,137.045455 L487.333409,175.909091 L446.935682,175.909091 L487.077727,110.454545 L448.214091,45 L488.100455,45 Z M586.225,175.909091 L586.225,45 L678.270455,45 L678.270455,73.6363636 L621.764773,73.6363636 L621.764773,96.1363636 L672.645455,96.1363636 L672.645455,124.772727 L621.764773,124.772727 L621.764773,175.909091 L586.225,175.909091 Z M690.230227,175.909091 L690.230227,45 L784.576818,45 L784.576818,73.6363636 L725.77,73.6363636 L725.77,96.1363636 L779.718864,96.1363636 L779.718864,124.772727 L725.77,124.772727 L725.77,147.272727 L784.321136,147.272727 L784.321136,175.909091 L690.230227,175.909091 Z M801.138864,175.909091 L801.138864,45 L857.644545,45 C867.360455,45 875.861875,46.7684659 883.148807,50.3053977 C890.435739,53.8423296 896.103352,58.9346591 900.151648,65.5823864 C904.199943,72.2301136 906.224091,80.1988636 906.224091,89.4886364 C906.224091,98.8636364 904.146676,106.768466 899.991847,113.203125 C895.837017,119.637784 890.020256,124.495739 882.541563,127.776989 C875.062869,131.058239 866.337727,132.698864 856.366136,132.698864 L822.616136,132.698864 L822.616136,105.085227 L849.207045,105.085227 C853.383182,105.085227 856.952074,104.56321 859.913722,103.519176 C862.875369,102.475142 865.155199,100.802557 866.75321,98.5014205 C868.351222,96.2002841 869.150227,93.1960227 869.150227,89.4886364 C869.150227,85.7386364 868.351222,82.681108 866.75321,80.3160511 C865.155199,77.9509943 862.875369,76.2038352 859.913722,75.0745739 C856.952074,73.9453125 853.383182,73.3806818 849.207045,73.3806818 L836.678636,73.3806818 L836.678636,175.909091 L801.138864,175.909091 Z M877.843409,115.823864 L910.570682,175.909091 L871.962727,175.909091 L840.0025,115.823864 L877.843409,115.823864 Z" id="Combined-Shape"></path>
        </g>
    </g>
</svg>