<?xml version="1.0" encoding="UTF-8"?>
<svg width="911px" height="183px" viewBox="0 0 911 183" version="1.1" xmlns="http://www.w3.org/2000/svg" xmlns:xlink="http://www.w3.org/1999/xlink">
    <title>Title</title>
    <defs>
        <filter x="-3.5%" y="-22.9%" width="106.9%" height="145.8%" filterUnits="objectBoundingBox" id="filter-1">
            <feGaussianBlur stdDeviation="10" in="SourceGraphic"></feGaussianBlur>
        </filter>
    </defs>
    <g id="Page-1" stroke="none" stroke-width="1" fill="none" fill-rule="evenodd">
        <path d="M26.4375,157 L26.4375,26.0909091 L82.9431818,26.0909091 C92.6590909,26.0909091 101.160511,28.0085227 108.447443,31.84375 C115.734375,35.6789773 121.401989,41.0696023 125.450284,48.015625 C129.49858,54.9616477 131.522727,63.0795455 131.522727,72.3693182 C131.522727,81.7443182 129.445312,89.8622159 125.290483,96.7230114 C121.135653,103.583807 115.318892,108.867898 107.840199,112.575284 C100.361506,116.28267 91.6363636,118.136364 81.6647727,118.136364 L47.9147727,118.136364 L47.9147727,90.5227273 L74.5056818,90.5227273 C78.6818182,90.5227273 82.2507102,89.787642 85.212358,88.3174716 C88.1740057,86.8473011 90.4538352,84.7485795 92.0518466,82.0213068 C93.649858,79.2940341 94.4488636,76.0767045 94.4488636,72.3693182 C94.4488636,68.6193182 93.649858,65.412642 92.0518466,62.7492898 C90.4538352,60.0859375 88.1740057,58.040483 85.212358,56.6129261 C82.2507102,55.1853693 78.6818182,54.4715909 74.5056818,54.4715909 L61.9772727,54.4715909 L61.9772727,157 L26.4375,157 Z M143.4825,157 L143.4825,26.0909091 L179.022273,26.0909091 L179.022273,77.2272727 L226.067727,77.2272727 L226.067727,26.0909091 L261.6075,26.0909091 L261.6075,157 L226.067727,157 L226.067727,105.863636 L179.022273,105.863636 L179.022273,157 L143.4825,157 Z M277.4025,157 L277.4025,26.0909091 L312.942273,26.0909091 L312.942273,128.363636 L365.868409,128.363636 L365.868409,157 L277.4025,157 Z M414.646364,26.0909091 L414.646364,157 L379.106591,157 L379.106591,26.0909091 L414.646364,26.0909091 Z M468.537955,26.0909091 L490.015227,64.1875 L491.037955,64.1875 L512.770909,26.0909091 L552.401591,26.0909091 L513.282273,91.5454545 L553.935682,157 L513.282273,157 L491.037955,118.136364 L490.015227,118.136364 L467.770909,157 L427.373182,157 L467.515227,91.5454545 L428.651591,26.0909091 L468.537955,26.0909091 Z M566.6625,157 L566.6625,26.0909091 L658.707955,26.0909091 L658.707955,54.7272727 L602.202273,54.7272727 L602.202273,77.2272727 L653.082955,77.2272727 L653.082955,105.863636 L602.202273,105.863636 L602.202273,157 L566.6625,157 Z M670.667727,157 L670.667727,26.0909091 L765.014318,26.0909091 L765.014318,54.7272727 L706.2075,54.7272727 L706.2075,77.2272727 L760.156364,77.2272727 L760.156364,105.863636 L706.2075,105.863636 L706.2075,128.363636 L764.758636,128.363636 L764.758636,157 L670.667727,157 Z M781.576364,157 L781.576364,26.0909091 L838.082045,26.0909091 C847.797955,26.0909091 856.299375,27.859375 863.586307,31.3963068 C870.873239,34.9332386 876.540852,40.0255682 880.589148,46.6732955 C884.637443,53.3210227 886.661591,61.2897727 886.661591,70.5795455 C886.661591,79.9545455 884.584176,87.859375 880.429347,94.2940341 C876.274517,100.728693 870.457756,105.586648 862.979063,108.867898 C855.500369,112.149148 846.775227,113.789773 836.803636,113.789773 L803.053636,113.789773 L803.053636,86.1761364 L829.644545,86.1761364 C833.820682,86.1761364 837.389574,85.6541193 840.351222,84.6100852 C843.312869,83.5660511 845.592699,81.8934659 847.19071,79.5923295 C848.788722,77.2911932 849.587727,74.2869318 849.587727,70.5795455 C849.587727,66.8295455 848.788722,63.772017 847.19071,61.4069602 C845.592699,59.0419034 843.312869,57.2947443 840.351222,56.165483 C837.389574,55.0362216 833.820682,54.4715909 829.644545,54.4715909 L817.116136,54.4715909 L817.116136,157 L781.576364,157 Z M858.280909,96.9147727 L891.008182,157 L852.400227,157 L820.44,96.9147727 L858.280909,96.9147727 Z" id="Title" fill="#F5F5F5" fill-rule="nonzero" filter="url(#filter-1)"></path>
    </g>
</svg>