<?xml version="1.0" encoding="UTF-8" standalone="no"?>
<!DOCTYPE svg PUBLIC "-//W3C//DTD SVG 1.1//EN" "http://www.w3.org/Graphics/SVG/1.1/DTD/svg11.dtd">
<svg width="100%" height="100%" viewBox="0 0 128 128" version="1.1" xmlns="http://www.w3.org/2000/svg" xmlns:xlink="http://www.w3.org/1999/xlink" xml:space="preserve" xmlns:serif="http://www.serif.com/" style="fill-rule:evenodd;clip-rule:evenodd;stroke-linejoin:round;stroke-miterlimit:2;">
    <g id="Logo-Flat" serif:id="Logo Flat" transform="matrix(0.125,0,0,0.125,0,0)">
        <rect x="0" y="0" width="1024" height="1024" style="fill:none;"/>
        <g transform="matrix(0.909091,0,0,0.964126,46.5455,18.3677)">
            <path d="M710,292.112C710,146.902 621.279,66 512,66C402.721,66 314,146.902 314,292.112L314,727.74C314,872.949 402.721,958 512,958C621.279,958 710,872.949 710,727.74L710,292.112Z" style="fill:rgb(255,124,214);"/>
        </g>
        <g transform="matrix(0.454545,-0.787296,0.834957,0.482063,-148.225,668.279)">
            <path d="M710,292.112C710,146.902 621.279,66 512,66C402.721,66 314,146.902 314,292.112L314,727.74C314,872.949 402.721,958 512,958C621.279,958 710,872.949 710,727.74L710,292.112Z" style="fill:rgb(0,188,227);"/>
        </g>
        <g transform="matrix(-0.454545,-0.787296,0.834957,-0.482063,317.229,1161.91)">
            <path d="M710,292.112C710,146.902 621.279,66 512,66C402.721,66 314,146.902 314,292.112L314,727.74C314,872.949 402.721,958 512,958C621.279,958 710,872.949 710,727.74L710,292.112Z" style="fill:rgb(153,122,219);"/>
        </g>
    </g>
</svg>
