<?xml version="1.0" encoding="UTF-8" standalone="no"?>
<!DOCTYPE svg PUBLIC "-//W3C//DTD SVG 1.1//EN" "http://www.w3.org/Graphics/SVG/1.1/DTD/svg11.dtd">
<svg width="100%" height="100%" viewBox="0 0 64 64" version="1.1" xmlns="http://www.w3.org/2000/svg" xmlns:xlink="http://www.w3.org/1999/xlink" xml:space="preserve" xmlns:serif="http://www.serif.com/" style="fill-rule:evenodd;clip-rule:evenodd;stroke-linejoin:round;stroke-miterlimit:2;">
    <g transform="matrix(0.178458,0,0,0.178458,-41.5246,-802.825)">
        <path d="M350.793,4571.99L348.207,4570.49C318.951,4553.6 281.487,4563.64 264.596,4592.9C247.706,4622.15 257.744,4659.62 287,4676.51L289.586,4678L287,4679.49C257.744,4696.38 247.706,4733.85 264.596,4763.1C281.487,4792.36 318.951,4802.4 348.207,4785.51L350.793,4784.01L350.793,4787C350.793,4820.78 378.219,4848.21 412,4848.21C445.781,4848.21 473.207,4820.78 473.207,4787L473.207,4784.01L475.793,4785.51C505.049,4802.4 542.513,4792.36 559.404,4763.1C576.294,4733.85 566.256,4696.38 537,4679.49L534.414,4678L537,4676.51C566.256,4659.62 576.294,4622.15 559.404,4592.9C542.513,4563.64 505.049,4553.6 475.793,4570.49L473.207,4571.99L473.207,4569C473.207,4535.22 445.781,4507.79 412,4507.79C378.219,4507.79 350.793,4535.22 350.793,4569L350.793,4571.99ZM450.793,4771.07L450.793,4787C450.793,4808.41 433.41,4825.79 412,4825.79C390.59,4825.79 373.207,4808.41 373.207,4787L373.207,4771.07L412,4748.68L450.793,4771.07ZM312,4690.94L350.793,4713.34L350.793,4758.13L337,4766.1C318.458,4776.8 294.713,4770.44 284.008,4751.9C273.302,4733.36 279.665,4709.61 298.207,4698.9L312,4690.94ZM512,4690.94L525.793,4698.9C544.335,4709.61 550.698,4733.36 539.992,4751.9C529.287,4770.44 505.542,4776.8 487,4766.1L473.207,4758.13L473.207,4713.34L512,4690.94ZM434.414,4735.73L450.793,4745.19L450.793,4726.28L434.414,4735.73ZM373.207,4745.19L389.586,4735.73L373.207,4726.28L373.207,4745.19ZM373.207,4655.6L373.207,4700.4L412,4722.79L450.793,4700.4L450.793,4655.6L412,4633.21L373.207,4655.6ZM473.207,4687.46L489.586,4678L473.207,4668.54L473.207,4687.46ZM334.414,4678L350.793,4687.46L350.793,4668.54L334.414,4678ZM512,4665.06L473.207,4642.66L473.207,4597.87L487,4589.9C505.542,4579.2 529.287,4585.56 539.992,4604.1C550.698,4622.65 544.335,4646.39 525.793,4657.1L512,4665.06ZM350.793,4597.87L350.793,4642.66L312,4665.06L298.207,4657.1C279.665,4646.39 273.302,4622.65 284.008,4604.1C294.713,4585.56 318.458,4579.2 337,4589.9L350.793,4597.87ZM434.414,4620.27L450.793,4629.72L450.793,4610.81L434.414,4620.27ZM373.207,4629.72L389.586,4620.27L373.207,4610.81L373.207,4629.72ZM450.793,4584.93L412,4607.32L373.207,4584.93L373.207,4569C373.207,4547.59 390.59,4530.21 412,4530.21C433.41,4530.21 450.793,4547.59 450.793,4569L450.793,4584.93Z" style="fill:rgb(230,230,230);"/>
    </g>
</svg>
