<?xml version="1.0" encoding="UTF-8" standalone="no"?>
<!DOCTYPE svg PUBLIC "-//W3C//DTD SVG 1.1//EN" "http://www.w3.org/Graphics/SVG/1.1/DTD/svg11.dtd">
<svg width="100%" height="100%" viewBox="0 0 600 600" version="1.1" xmlns="http://www.w3.org/2000/svg" xmlns:xlink="http://www.w3.org/1999/xlink" xml:space="preserve" xmlns:serif="http://www.serif.com/" style="fill-rule:evenodd;clip-rule:evenodd;stroke-linejoin:round;stroke-miterlimit:2;">
    <g transform="matrix(1,0,0,1,-2100,-700)">
        <g id="Instagram_Logo_Mono" transform="matrix(1,0,0,1,-1400,700)">
            <rect x="3500" y="0" width="600" height="600" style="fill:none;"/>
            <path d="M3799.67,120.662C3750.87,120.662 3744.76,120.869 3725.59,121.744C3706.47,122.617 3693.41,125.653 3681.98,130.095C3670.16,134.687 3660.14,140.83 3650.16,150.819C3640.17,160.807 3634.02,170.827 3629.43,182.641C3624.99,194.07 3621.95,207.13 3621.08,226.254C3620.21,245.418 3620,251.536 3620,300.332C3620,349.126 3620.21,355.245 3621.08,374.408C3621.95,393.532 3624.99,406.593 3629.43,418.021C3634.02,429.836 3640.17,439.856 3650.16,449.845C3660.14,459.833 3670.16,465.976 3681.98,470.568C3693.41,475.009 3706.47,478.047 3725.59,478.919C3744.76,479.793 3750.87,480 3799.67,480C3848.46,480 3854.58,479.793 3873.75,478.919C3892.87,478.047 3905.93,475.009 3917.36,470.568C3929.17,465.976 3939.19,459.833 3949.18,449.845C3959.17,439.856 3965.31,429.836 3969.91,418.021C3974.35,406.593 3977.38,393.532 3978.26,374.408C3979.13,355.245 3979.34,349.126 3979.34,300.332C3979.34,251.536 3979.13,245.418 3978.26,226.254C3977.38,207.13 3974.35,194.07 3969.91,182.641C3965.31,170.827 3959.17,160.807 3949.18,150.819C3939.19,140.83 3929.17,134.687 3917.36,130.095C3905.93,125.653 3892.87,122.617 3873.75,121.744C3854.58,120.869 3848.46,120.662 3799.67,120.662ZM3799.67,208.069C3748.71,208.069 3707.41,249.376 3707.41,300.332C3707.41,351.287 3748.71,392.594 3799.67,392.594C3850.62,392.594 3891.93,351.287 3891.93,300.332C3891.93,249.376 3850.62,208.069 3799.67,208.069ZM3799.67,360.221C3766.59,360.221 3739.78,333.408 3739.78,300.332C3739.78,267.255 3766.59,240.442 3799.67,240.442C3832.74,240.442 3859.56,267.255 3859.56,300.332C3859.56,333.408 3832.74,360.221 3799.67,360.221ZM3917.14,204.424C3917.14,216.331 3907.48,225.984 3895.58,225.984C3883.67,225.984 3874.02,216.331 3874.02,204.424C3874.02,192.516 3883.67,182.864 3895.58,182.864C3907.48,182.864 3917.14,192.516 3917.14,204.424Z" style="fill:rgb(217,217,217);"/>
        </g>
    </g>
</svg>
