<?xml version="1.0" encoding="UTF-8" standalone="no"?>
<!DOCTYPE svg PUBLIC "-//W3C//DTD SVG 1.1//EN" "http://www.w3.org/Graphics/SVG/1.1/DTD/svg11.dtd">
<svg width="100%" height="100%" viewBox="0 0 600 600" version="1.1" xmlns="http://www.w3.org/2000/svg" xmlns:xlink="http://www.w3.org/1999/xlink" xml:space="preserve" xmlns:serif="http://www.serif.com/" style="fill-rule:evenodd;clip-rule:evenodd;stroke-linejoin:round;stroke-miterlimit:2;">
    <path d="M125,247.286L125,398C125,409.038 133.962,418 145,418L455,418C466.038,418 475,409.038 475,398L475,247.286L322.094,348.6C308.701,357.474 291.299,357.474 277.906,348.6L125,247.286Z" style="fill:rgb(179,179,179);"/>
    <clipPath id="_clip1">
        <path d="M125,247.286L125,398C125,409.038 133.962,418 145,418L455,418C466.038,418 475,409.038 475,398L475,247.286L322.094,348.6C308.701,357.474 291.299,357.474 277.906,348.6L125,247.286Z"/>
    </clipPath>
    <g clip-path="url(#_clip1)">
        <path d="M131.022,425.984L300,298.526C300,298.526 468.978,425.984 468.978,425.984C473.387,429.309 479.658,428.431 482.984,424.022C486.309,419.613 485.431,413.342 481.022,410.016L306.022,278.016C302.457,275.328 297.543,275.328 293.978,278.016L118.978,410.016C114.569,413.342 113.691,419.613 117.016,424.022C120.342,428.431 126.613,429.309 131.022,425.984Z" style="fill:rgb(166,166,166);"/>
    </g>
    <path d="M125,223.294L125,202C125,190.962 133.962,182 145,182L455,182C466.038,182 475,190.962 475,202L475,223.294L322.094,324.608C308.701,333.482 291.299,333.482 277.906,324.608L125,223.294Z" style="fill:rgb(179,179,179);"/>
    <path d="M126.534,194.324L288.953,301.941C295.649,306.378 304.351,306.378 311.047,301.941L473.466,194.324C474.456,196.686 475,199.28 475,202L475,223.294L322.094,324.608C308.701,333.482 291.299,333.482 277.906,324.608L125,223.294L125,202C125,199.28 125.544,196.686 126.534,194.324Z" style="fill:rgb(232,78,78);"/>
</svg>
