<?xml version="1.0" encoding="UTF-8" standalone="no"?>
<!DOCTYPE svg PUBLIC "-//W3C//DTD SVG 1.1//EN" "http://www.w3.org/Graphics/SVG/1.1/DTD/svg11.dtd">
<svg width="100%" height="100%" viewBox="0 0 600 600" version="1.1" xmlns="http://www.w3.org/2000/svg" xmlns:xlink="http://www.w3.org/1999/xlink" xml:space="preserve" xmlns:serif="http://www.serif.com/" style="fill-rule:evenodd;clip-rule:evenodd;stroke-linejoin:round;stroke-miterlimit:2;">
    <g transform="matrix(1,0,0,1,-700,-700)">
        <g id="Mail_Icon_Mono" transform="matrix(1,0,0,1,-2800,700)">
            <rect x="3500" y="0" width="600" height="600" style="fill:none;"/>
            <path d="M4010,191C4010,168.923 3992.08,151 3970,151L3630,151C3607.92,151 3590,168.923 3590,191L3590,409C3590,431.077 3607.92,449 3630,449L3970,449C3992.08,449 4010,431.077 4010,409L4010,191ZM3897.2,322.904L3872.23,341.774L3941.08,392.443C3947.75,397.353 3957.14,395.924 3962.05,389.252C3966.96,382.58 3965.53,373.19 3958.86,368.28L3897.2,322.904ZM3702.94,322.918L3641.39,368.288C3634.73,373.203 3633.31,382.594 3638.22,389.262C3643.14,395.93 3652.53,397.351 3659.2,392.435L3727.88,341.8L3702.94,322.918ZM3641.24,232.321C3641.24,232.321 3733.02,301.795 3772.86,331.947C3788.91,344.099 3811.08,344.108 3827.14,331.97C3867.04,301.826 3959.01,232.329 3959.01,232.329C3965.62,227.335 3966.93,217.928 3961.94,211.319C3956.94,204.709 3947.54,203.4 3940.93,208.394C3940.93,208.394 3848.95,277.891 3809.06,308.035C3803.7,312.081 3796.31,312.078 3790.96,308.027C3751.13,277.875 3659.35,208.401 3659.35,208.401C3652.74,203.402 3643.34,204.703 3638.34,211.308C3633.34,217.914 3634.64,227.322 3641.24,232.321Z" style="fill:rgb(217,217,217);"/>
        </g>
    </g>
</svg>
