<?xml version="1.0" encoding="UTF-8" standalone="no"?>
<!DOCTYPE svg PUBLIC "-//W3C//DTD SVG 1.1//EN" "http://www.w3.org/Graphics/SVG/1.1/DTD/svg11.dtd">
<svg width="100%" height="100%" viewBox="0 0 600 600" version="1.1" xmlns="http://www.w3.org/2000/svg" xmlns:xlink="http://www.w3.org/1999/xlink" xml:space="preserve" xmlns:serif="http://www.serif.com/" style="fill-rule:evenodd;clip-rule:evenodd;stroke-linejoin:round;stroke-miterlimit:2;">
    <g transform="matrix(1.19429,0,0,1.19429,-58.2857,-58.2857)">
        <path d="M125,247.286L125,398C125,409.038 133.962,418 145,418L455,418C466.038,418 475,409.038 475,398L475,247.286L322.094,348.6C308.701,357.474 291.299,357.474 277.906,348.6L125,247.286Z" style="fill:rgb(164,188,194);"/>
        <clipPath id="_clip1">
            <path d="M125,247.286L125,398C125,409.038 133.962,418 145,418L455,418C466.038,418 475,409.038 475,398L475,247.286L322.094,348.6C308.701,357.474 291.299,357.474 277.906,348.6L125,247.286Z"/>
        </clipPath>
        <g clip-path="url(#_clip1)">
            <path d="M166.67,436.922L300,303.752C300,303.752 433.33,436.922 433.33,436.922C438.238,441.824 446.19,441.82 451.092,436.912C455.994,432.004 455.989,424.051 451.081,419.149L308.876,277.114C303.972,272.216 296.028,272.216 291.124,277.114L148.919,419.149C144.011,424.051 144.006,432.004 148.908,436.912C153.81,441.82 161.762,441.824 166.67,436.922Z" style="fill:rgb(143,176,188);"/>
        </g>
    </g>
    <g transform="matrix(1.19429,0,0,1.19429,-58.2857,-58.2857)">
        <path d="M125,223.294L125,198.746C125,189.504 132.504,182 141.746,182L458.254,182C467.496,182 475,189.504 475,198.746L475,223.294L318.5,326.99C307.286,334.42 292.714,334.42 281.5,326.99L125,223.294Z" style="fill:rgb(164,188,194);"/>
    </g>
    <g transform="matrix(1.19429,0,0,1.19429,-58.2857,-58.2857)">
        <path d="M125.745,193.801L290.75,303.132C296.357,306.847 303.643,306.847 309.25,303.132L474.255,193.801C474.74,195.365 475,197.025 475,198.746L475,223.294L318.5,326.99C307.286,334.42 292.714,334.42 281.5,326.99L125,223.294L125,198.746C125,197.025 125.26,195.365 125.745,193.801Z" style="fill:rgb(232,78,78);"/>
    </g>
</svg>
