<?xml version="1.0" encoding="UTF-8" standalone="no"?>
<!DOCTYPE svg PUBLIC "-//W3C//DTD SVG 1.1//EN" "http://www.w3.org/Graphics/SVG/1.1/DTD/svg11.dtd">
<svg width="100%" height="100%" viewBox="0 0 600 600" version="1.1" xmlns="http://www.w3.org/2000/svg" xmlns:xlink="http://www.w3.org/1999/xlink" xml:space="preserve" xmlns:serif="http://www.serif.com/" style="fill-rule:evenodd;clip-rule:evenodd;stroke-linejoin:round;stroke-miterlimit:2;">
    <g transform="matrix(1,0,0,1,-700,-700)">
        <g id="Mail_Icon_Mono" transform="matrix(1,0,0,1,-2800,700)">
            <rect x="3500" y="0" width="600" height="600" style="fill:none;"/>
            <path d="M4010,191C4010,168.923 3992.08,151 3970,151L3630,151C3607.92,151 3590,168.923 3590,191L3590,409C3590,431.077 3607.92,449 3630,449L3970,449C3992.08,449 4010,431.077 4010,409L4010,191ZM3884.63,319.865L3867.99,332.445L3944.04,388.416C3948.49,391.689 3954.75,390.737 3958.02,386.288C3961.3,381.84 3960.35,375.581 3955.9,372.307L3884.63,319.865ZM3715.49,319.877L3644.36,372.312C3639.92,375.589 3638.97,381.85 3642.25,386.295C3645.52,390.741 3651.78,391.688 3656.23,388.411L3732.12,332.465L3715.49,319.877ZM3644.26,228.335C3644.26,228.335 3736.04,297.808 3775.87,327.961C3790.14,338.762 3809.85,338.77 3824.13,327.981C3864.02,297.837 3956,228.34 3956,228.34C3960.41,225.01 3961.28,218.739 3957.95,214.333C3954.62,209.926 3948.35,209.054 3943.94,212.383C3943.94,212.383 3851.97,281.88 3812.07,312.024C3804.93,317.419 3795.08,317.415 3787.95,312.014C3748.11,281.861 3656.33,212.388 3656.33,212.388C3651.93,209.055 3645.66,209.923 3642.32,214.326C3638.99,218.73 3639.86,225.002 3644.26,228.335Z" style="fill:rgb(217,217,217);"/>
        </g>
    </g>
</svg>
