<?xml version="1.0" encoding="UTF-8" standalone="no"?><!DOCTYPE svg PUBLIC "-//W3C//DTD SVG 1.1//EN" "http://www.w3.org/Graphics/SVG/1.1/DTD/svg11.dtd"><svg width="100%" height="100%" viewBox="0 0 950 1000" version="1.1" xmlns="http://www.w3.org/2000/svg" xmlns:xlink="http://www.w3.org/1999/xlink" xml:space="preserve" xmlns:serif="http://www.serif.com/" style="fill-rule:evenodd;clip-rule:evenodd;stroke-linecap:round;stroke-linejoin:round;stroke-miterlimit:1.5;"><g><path d="M950,41.667c-0,-22.997 -18.67,-41.667 -41.667,-41.667l-866.666,0c-22.997,0 -41.667,18.67 -41.667,41.667l0,916.666c0,22.997 18.67,41.667 41.667,41.667l866.666,-0c22.997,-0 41.667,-18.67 41.667,-41.667l-0,-916.666Zm-8.333,-0l-0,916.666c-0,18.398 -14.936,33.334 -33.334,33.334l-866.666,-0c-18.398,-0 -33.334,-14.936 -33.334,-33.334l0,-916.666c0,-18.398 14.936,-33.334 33.334,-33.334l866.666,0c18.397,0 33.334,14.936 33.334,33.334Z" style="fill:#ccc;"/><path d="M950,41.667c-0,-22.997 -18.67,-41.667 -41.667,-41.667l-866.666,-0c-22.997,-0 -41.667,18.67 -41.667,41.667l0,118.333l950,-0l-0,-118.333Z" style="fill:#ccc;"/><g transform="matrix(2.08333,0,0,2.08333,0,2.4869e-13)"><g transform="matrix(30,0,0,30,171.784,49.3091)"><rect x="0.088" y="-0.727" width="0.088" height="0.727" style="fill:#121212;fill-rule:nonzero;"/></g><g transform="matrix(30,0,0,30,179.71,49.3091)"><path d="M0.314,-0.545l-0.117,-0l0,-0.131l-0.083,-0l-0,0.131l-0.083,-0l0,0.071l0.083,-0l-0,0.34c-0,0.096 0.076,0.141 0.147,0.141c0.032,0 0.051,-0.006 0.063,-0.01l-0.017,-0.075c-0.007,0.001 -0.019,0.004 -0.037,0.004c-0.037,0 -0.073,-0.011 -0.073,-0.082l0,-0.318l0.117,-0l-0,-0.071Z" style="fill:#121212;fill-rule:nonzero;"/></g><g transform="matrix(30,0,0,30,190.449,49.3091)"><path d="M0.305,0.011c0.111,0 0.192,-0.055 0.218,-0.137l-0.081,-0.023c-0.022,0.057 -0.071,0.085 -0.137,0.085c-0.098,0 -0.166,-0.063 -0.17,-0.18l0.396,-0l0,-0.036c0,-0.203 -0.12,-0.273 -0.234,-0.273c-0.148,0 -0.246,0.117 -0.246,0.285c0,0.167 0.097,0.279 0.254,0.279Zm-0.17,-0.328c0.006,-0.085 0.066,-0.16 0.162,-0.16c0.091,-0 0.149,0.068 0.149,0.16l-0.311,0Z" style="fill:#121212;fill-rule:nonzero;"/></g><g transform="matrix(30,0,0,30,207.92,49.3091)"><path d="M0.077,-0l0.084,-0l-0,-0.341c-0,-0.08 0.058,-0.136 0.123,-0.136c0.064,-0 0.108,0.041 0.108,0.103l0,0.374l0.085,-0l0,-0.355c0,-0.07 0.044,-0.122 0.121,-0.122c0.06,-0 0.111,0.031 0.111,0.112l-0,0.365l0.084,-0l-0,-0.365c-0,-0.128 -0.069,-0.188 -0.167,-0.188c-0.078,0 -0.135,0.036 -0.163,0.093l-0.006,-0c-0.027,-0.058 -0.074,-0.093 -0.146,-0.093c-0.071,0 -0.124,0.035 -0.146,0.093l-0.007,-0l-0,-0.085l-0.081,-0l-0,0.545Z" style="fill:#121212;fill-rule:nonzero;"/></g><g transform="matrix(30,0,0,30,294,49.3091)"><path d="M0.088,-0l0.088,-0l0,-0.266l0.159,0c0.17,0 0.246,-0.103 0.246,-0.231c-0,-0.129 -0.076,-0.23 -0.247,-0.23l-0.246,-0l0,0.727Zm0.088,-0.344l0,-0.305l0.155,-0c0.118,-0 0.163,0.064 0.163,0.152c0,0.087 -0.045,0.153 -0.162,0.153l-0.156,0Z" style="fill:#121212;fill-rule:nonzero;"/></g><g transform="matrix(30,0,0,30,313.048,49.3091)"><path d="M0.077,-0l0.084,-0l-0,-0.345c-0,-0.074 0.058,-0.128 0.137,-0.128c0.023,-0 0.046,0.004 0.051,0.006l0,-0.086c-0.009,-0 -0.031,-0.001 -0.044,-0.001c-0.065,0 -0.122,0.037 -0.142,0.091l-0.005,-0l-0,-0.082l-0.081,-0l-0,0.545Z" style="fill:#121212;fill-rule:nonzero;"/></g><g transform="matrix(30,0,0,30,324.213,49.3091)"><path d="M0.077,-0l0.084,-0l-0,-0.545l-0.084,-0l-0,0.545Zm0.042,-0.636c0.033,-0 0.06,-0.026 0.06,-0.057c-0,-0.031 -0.027,-0.057 -0.06,-0.057c-0.032,0 -0.059,0.026 -0.059,0.057c-0,0.031 0.027,0.057 0.059,0.057Z" style="fill:#121212;fill-rule:nonzero;"/></g><g transform="matrix(30,0,0,30,331.33,49.3091)"><path d="M0.298,0.011c0.121,0 0.201,-0.073 0.215,-0.17l-0.084,-0c-0.016,0.06 -0.065,0.095 -0.131,0.095c-0.099,0 -0.163,-0.082 -0.163,-0.209c-0,-0.123 0.065,-0.204 0.163,-0.204c0.074,-0 0.118,0.045 0.131,0.095l0.084,-0c-0.014,-0.102 -0.101,-0.171 -0.216,-0.171c-0.148,0 -0.246,0.117 -0.246,0.283c0,0.163 0.094,0.281 0.247,0.281Z" style="fill:#121212;fill-rule:nonzero;"/></g><g transform="matrix(30,0,0,30,348.077,49.3091)"><path d="M0.305,0.011c0.111,0 0.192,-0.055 0.218,-0.137l-0.081,-0.023c-0.022,0.057 -0.071,0.085 -0.137,0.085c-0.098,0 -0.166,-0.063 -0.17,-0.18l0.396,-0l0,-0.036c0,-0.203 -0.12,-0.273 -0.234,-0.273c-0.148,0 -0.246,0.117 -0.246,0.285c0,0.167 0.097,0.279 0.254,0.279Zm-0.17,-0.328c0.006,-0.085 0.066,-0.16 0.162,-0.16c0.091,-0 0.149,0.068 0.149,0.16l-0.311,0Z" style="fill:#121212;fill-rule:nonzero;"/></g><g transform="matrix(30,0,0,30,373.986,49.3091)"><path d="M0.107,-0.364c-0,0.179 0.048,0.328 0.134,0.455l0.074,-0c-0.068,-0.094 -0.122,-0.286 -0.122,-0.455c0,-0.169 0.054,-0.36 0.122,-0.454l-0.074,-0c-0.086,0.126 -0.134,0.275 -0.134,0.454Z" style="fill:#121212;fill-rule:nonzero;"/></g><g transform="matrix(30,0,0,30,384.852,49.3091)"><path d="M0.521,-0.47l-0.311,-0c0.029,-0.121 0.106,-0.185 0.202,-0.185c0.061,0 0.114,0.026 0.159,0.067l0.034,-0.074c-0.051,-0.048 -0.118,-0.075 -0.193,-0.075c-0.146,-0 -0.256,0.1 -0.289,0.267l-0.072,-0l-0.025,0.071l0.089,-0c-0.001,0.012 -0.001,0.023 -0.001,0.035c-0,0.012 -0,0.024 0.001,0.036l-0.064,-0l-0.025,0.071l0.097,-0c0.033,0.167 0.143,0.267 0.289,0.267c0.072,-0 0.142,-0.024 0.192,-0.071l-0.036,-0.074c-0.041,0.036 -0.094,0.063 -0.156,0.063c-0.096,-0 -0.173,-0.065 -0.202,-0.185l0.218,-0l0.032,-0.071l-0.26,-0c-0.001,-0.011 -0.001,-0.024 -0.001,-0.036c-0,-0.012 0,-0.024 0.001,-0.035l0.289,-0l0.032,-0.071Z" style="fill:#121212;fill-rule:nonzero;"/></g><g transform="matrix(30,0,0,30,404.795,49.3091)"><path d="M0.256,-0.364c-0,-0.179 -0.049,-0.328 -0.135,-0.454l-0.074,-0c0.068,0.094 0.122,0.285 0.122,0.454c0,0.169 -0.054,0.361 -0.122,0.455l0.074,-0c0.086,-0.127 0.135,-0.276 0.135,-0.455Z" style="fill:#121212;fill-rule:nonzero;"/></g><g transform="matrix(30,0,0,30,134.455,127.6)"><path d="M0.075,-0l0.459,-0l0,-0.078l-0.338,-0l0,-0.006l0.163,-0.175c0.125,-0.133 0.162,-0.196 0.162,-0.277c0,-0.112 -0.091,-0.201 -0.218,-0.201c-0.128,-0 -0.225,0.086 -0.225,0.214l0.084,0c-0,-0.082 0.054,-0.138 0.138,-0.138c0.079,0 0.139,0.049 0.139,0.125c-0,0.068 -0.04,0.117 -0.124,0.209l-0.24,0.263l0,0.064Z" style="fill:#121212;fill-rule:nonzero;"/></g><g transform="matrix(30,0,0,30,152.608,127.6)"><path d="M0.312,-0c0.222,-0 0.347,-0.138 0.347,-0.365c0,-0.226 -0.125,-0.362 -0.337,-0.362l-0.234,-0l0,0.727l0.224,-0Zm-0.136,-0.078l0,-0.571l0.141,-0c0.17,-0 0.257,0.108 0.257,0.284c-0,0.178 -0.087,0.287 -0.267,0.287l-0.131,-0Z" style="fill:#121212;fill-rule:nonzero;"/></g><g transform="matrix(30,0,0,30,182.608,127.6)"><path d="M0.486,-0.545l0.085,-0c-0.004,-0.11 -0.105,-0.192 -0.246,-0.192c-0.139,-0 -0.248,0.081 -0.248,0.203c-0,0.098 0.071,0.156 0.184,0.189l0.09,0.025c0.077,0.022 0.145,0.049 0.145,0.121c-0,0.08 -0.077,0.132 -0.178,0.132c-0.086,0 -0.163,-0.038 -0.17,-0.12l-0.091,-0c0.008,0.119 0.105,0.2 0.261,0.2c0.168,-0 0.263,-0.093 0.263,-0.21c-0,-0.137 -0.129,-0.181 -0.205,-0.201l-0.073,-0.02c-0.054,-0.014 -0.141,-0.042 -0.141,-0.12c-0,-0.07 0.064,-0.121 0.16,-0.121c0.089,-0 0.155,0.042 0.164,0.114Z" style="fill:#121212;fill-rule:nonzero;"/></g><g transform="matrix(30,0,0,30,201.741,127.6)"><path d="M0.314,-0.545l-0.117,-0l0,-0.131l-0.083,-0l-0,0.131l-0.083,-0l0,0.071l0.083,-0l-0,0.34c-0,0.096 0.076,0.141 0.147,0.141c0.032,0 0.051,-0.006 0.063,-0.01l-0.017,-0.075c-0.007,0.001 -0.019,0.004 -0.037,0.004c-0.037,0 -0.073,-0.011 -0.073,-0.082l0,-0.318l0.117,-0l-0,-0.071Z" style="fill:#121212;fill-rule:nonzero;"/></g><g transform="matrix(30,0,0,30,212.651,127.6)"><path d="M0.077,-0l0.084,-0l-0,-0.545l-0.084,-0l-0,0.545Zm0.042,-0.636c0.033,-0 0.06,-0.026 0.06,-0.057c-0,-0.031 -0.027,-0.057 -0.06,-0.057c-0.032,0 -0.059,0.026 -0.059,0.057c-0,0.031 0.027,0.057 0.059,0.057Z" style="fill:#121212;fill-rule:nonzero;"/></g><g transform="matrix(30,0,0,30,219.767,127.6)"><rect x="0.077" y="-0.727" width="0.084" height="0.727" style="fill:#121212;fill-rule:nonzero;"/></g><g transform="matrix(30,0,0,30,226.884,127.6)"><rect x="0.077" y="-0.727" width="0.084" height="0.727" style="fill:#121212;fill-rule:nonzero;"/></g><g transform="matrix(30,0,0,30,294,127.6)"><path d="M0.331,-0.727l-0.088,-0l-0.182,0.12l0,0.09l0.178,-0.118l0.004,0l-0,0.635l0.088,-0l-0,-0.727Z" style="fill:#121212;fill-rule:nonzero;"/></g><g transform="matrix(30,0,0,30,307.935,127.6)"><path d="M0.312,0.01c0.161,-0 0.253,-0.136 0.253,-0.374c0,-0.235 -0.093,-0.373 -0.253,-0.373c-0.159,-0 -0.252,0.138 -0.252,0.373c-0,0.238 0.092,0.374 0.252,0.374Zm0,-0.078c-0.105,-0 -0.167,-0.106 -0.167,-0.296c-0,-0.189 0.062,-0.297 0.167,-0.297c0.106,0 0.168,0.108 0.168,0.297c0,0.19 -0.062,0.296 -0.168,0.296Z" style="fill:#121212;fill-rule:nonzero;"/></g><g transform="matrix(30,0,0,30,326.685,127.6)"><path d="M0.312,0.01c0.161,-0 0.253,-0.136 0.253,-0.374c0,-0.235 -0.093,-0.373 -0.253,-0.373c-0.159,-0 -0.252,0.138 -0.252,0.373c-0,0.238 0.092,0.374 0.252,0.374Zm0,-0.078c-0.105,-0 -0.167,-0.106 -0.167,-0.296c-0,-0.189 0.062,-0.297 0.167,-0.297c0.106,0 0.168,0.108 0.168,0.297c0,0.19 -0.062,0.296 -0.168,0.296Z" style="fill:#121212;fill-rule:nonzero;"/></g><g transform="matrix(30,0,0,30,345.435,127.6)"><path d="M0.521,-0.47l-0.311,-0c0.029,-0.121 0.106,-0.185 0.202,-0.185c0.061,0 0.114,0.026 0.159,0.067l0.034,-0.074c-0.051,-0.048 -0.118,-0.075 -0.193,-0.075c-0.146,-0 -0.256,0.1 -0.289,0.267l-0.072,-0l-0.025,0.071l0.089,-0c-0.001,0.012 -0.001,0.023 -0.001,0.035c-0,0.012 -0,0.024 0.001,0.036l-0.064,-0l-0.025,0.071l0.097,-0c0.033,0.167 0.143,0.267 0.289,0.267c0.072,-0 0.142,-0.024 0.192,-0.071l-0.036,-0.074c-0.041,0.036 -0.094,0.063 -0.156,0.063c-0.096,-0 -0.173,-0.065 -0.202,-0.185l0.218,-0l0.032,-0.071l-0.26,-0c-0.001,-0.011 -0.001,-0.024 -0.001,-0.036c-0,-0.012 0,-0.024 0.001,-0.035l0.289,-0l0.032,-0.071Z" style="fill:#121212;fill-rule:nonzero;"/></g><g transform="matrix(30,0,0,30,44.4119,186.4)"><path d="M0.075,-0l0.459,-0l0,-0.078l-0.338,-0l0,-0.006l0.163,-0.175c0.125,-0.133 0.162,-0.196 0.162,-0.277c0,-0.112 -0.091,-0.201 -0.218,-0.201c-0.128,-0 -0.225,0.086 -0.225,0.214l0.084,0c-0,-0.082 0.054,-0.138 0.138,-0.138c0.079,0 0.139,0.049 0.139,0.125c-0,0.068 -0.04,0.117 -0.124,0.209l-0.24,0.263l0,0.064Z" style="fill:#121212;fill-rule:nonzero;"/></g><g transform="matrix(30,0,0,30,62.5653,186.4)"><path d="M0.312,-0c0.222,-0 0.347,-0.138 0.347,-0.365c0,-0.226 -0.125,-0.362 -0.337,-0.362l-0.234,-0l0,0.727l0.224,-0Zm-0.136,-0.078l0,-0.571l0.141,-0c0.17,-0 0.257,0.108 0.257,0.284c-0,0.178 -0.087,0.287 -0.267,0.287l-0.131,-0Z" style="fill:#121212;fill-rule:nonzero;"/></g><g transform="matrix(30,0,0,30,92.5653,186.4)"><path d="M0.118,-0l0.073,-0.206l0.294,0l0.073,0.206l0.093,-0l-0.267,-0.727l-0.091,-0l-0.267,0.727l0.092,-0Zm0.101,-0.284l0.116,-0.328l0.006,-0l0.116,0.328l-0.238,-0Z" style="fill:#121212;fill-rule:nonzero;"/></g><g transform="matrix(30,0,0,30,112.849,186.4)"><path d="M0.161,-0.328c-0,-0.095 0.058,-0.149 0.139,-0.149c0.077,-0 0.125,0.051 0.125,0.136l-0,0.341l0.084,-0l-0,-0.347c-0,-0.139 -0.075,-0.206 -0.185,-0.206c-0.083,0 -0.134,0.037 -0.159,0.093l-0.007,-0l-0,-0.085l-0.081,-0l-0,0.545l0.084,-0l-0,-0.328Z" style="fill:#121212;fill-rule:nonzero;"/></g><g transform="matrix(30,0,0,30,130.406,186.4)"><path d="M0.077,-0l0.084,-0l-0,-0.545l-0.084,-0l-0,0.545Zm0.042,-0.636c0.033,-0 0.06,-0.026 0.06,-0.057c-0,-0.031 -0.027,-0.057 -0.06,-0.057c-0.032,0 -0.059,0.026 -0.059,0.057c-0,0.031 0.027,0.057 0.059,0.057Z" style="fill:#121212;fill-rule:nonzero;"/></g><g transform="matrix(30,0,0,30,137.523,186.4)"><path d="M0.077,-0l0.084,-0l-0,-0.341c-0,-0.08 0.058,-0.136 0.123,-0.136c0.064,-0 0.108,0.041 0.108,0.103l0,0.374l0.085,-0l0,-0.355c0,-0.07 0.044,-0.122 0.121,-0.122c0.06,-0 0.111,0.031 0.111,0.112l-0,0.365l0.084,-0l-0,-0.365c-0,-0.128 -0.069,-0.188 -0.167,-0.188c-0.078,0 -0.135,0.036 -0.163,0.093l-0.006,-0c-0.027,-0.058 -0.074,-0.093 -0.146,-0.093c-0.071,0 -0.124,0.035 -0.146,0.093l-0.007,-0l-0,-0.085l-0.081,-0l-0,0.545Z" style="fill:#121212;fill-rule:nonzero;"/></g><g transform="matrix(30,0,0,30,163.602,186.4)"><path d="M0.237,0.013c0.095,-0 0.145,-0.051 0.162,-0.087l0.004,0l0,0.074l0.084,0l0,-0.359c0,-0.174 -0.132,-0.194 -0.201,-0.194c-0.083,0 -0.177,0.029 -0.219,0.128l0.079,0.029c0.019,-0.04 0.062,-0.083 0.142,-0.083c0.077,0 0.115,0.041 0.115,0.111l0,0.003c0,0.04 -0.041,0.037 -0.14,0.05c-0.101,0.013 -0.212,0.035 -0.212,0.16c0,0.107 0.083,0.168 0.186,0.168Zm0.013,-0.075c-0.067,-0 -0.115,-0.03 -0.115,-0.089c-0,-0.063 0.058,-0.083 0.124,-0.092c0.035,-0.004 0.13,-0.014 0.144,-0.031l0,0.077c0,0.068 -0.054,0.135 -0.153,0.135Z" style="fill:#121212;fill-rule:nonzero;"/></g><g transform="matrix(30,0,0,30,180.52,186.4)"><path d="M0.314,-0.545l-0.117,-0l0,-0.131l-0.083,-0l-0,0.131l-0.083,-0l0,0.071l0.083,-0l-0,0.34c-0,0.096 0.076,0.141 0.147,0.141c0.032,0 0.051,-0.006 0.063,-0.01l-0.017,-0.075c-0.007,0.001 -0.019,0.004 -0.037,0.004c-0.037,0 -0.073,-0.011 -0.073,-0.082l0,-0.318l0.117,-0l-0,-0.071Z" style="fill:#121212;fill-rule:nonzero;"/></g><g transform="matrix(30,0,0,30,191.429,186.4)"><path d="M0.077,-0l0.084,-0l-0,-0.545l-0.084,-0l-0,0.545Zm0.042,-0.636c0.033,-0 0.06,-0.026 0.06,-0.057c-0,-0.031 -0.027,-0.057 -0.06,-0.057c-0.032,0 -0.059,0.026 -0.059,0.057c-0,0.031 0.027,0.057 0.059,0.057Z" style="fill:#121212;fill-rule:nonzero;"/></g><g transform="matrix(30,0,0,30,198.545,186.4)"><path d="M0.298,0.011c0.148,0 0.247,-0.112 0.247,-0.281c0,-0.17 -0.099,-0.283 -0.247,-0.283c-0.147,0 -0.247,0.113 -0.247,0.283c0,0.169 0.1,0.281 0.247,0.281Zm0,-0.075c-0.112,0 -0.163,-0.097 -0.163,-0.206c-0,-0.109 0.051,-0.207 0.163,-0.207c0.113,-0 0.164,0.098 0.164,0.207c-0,0.109 -0.051,0.206 -0.164,0.206Z" style="fill:#121212;fill-rule:nonzero;"/></g><g transform="matrix(30,0,0,30,216.443,186.4)"><path d="M0.161,-0.328c-0,-0.095 0.058,-0.149 0.139,-0.149c0.077,-0 0.125,0.051 0.125,0.136l-0,0.341l0.084,-0l-0,-0.347c-0,-0.139 -0.075,-0.206 -0.185,-0.206c-0.083,0 -0.134,0.037 -0.159,0.093l-0.007,-0l-0,-0.085l-0.081,-0l-0,0.545l0.084,-0l-0,-0.328Z" style="fill:#121212;fill-rule:nonzero;"/></g><g transform="matrix(30,0,0,30,294,186.4)"><path d="M0.331,-0.727l-0.088,-0l-0.182,0.12l0,0.09l0.178,-0.118l0.004,0l-0,0.635l0.088,-0l-0,-0.727Z" style="fill:#121212;fill-rule:nonzero;"/></g><g transform="matrix(30,0,0,30,307.935,186.4)"><path d="M0.321,0.01c0.141,-0 0.246,-0.088 0.246,-0.207c-0,-0.093 -0.055,-0.16 -0.147,-0.175l0,-0.006c0.074,-0.022 0.12,-0.083 0.12,-0.165c-0,-0.103 -0.082,-0.194 -0.216,-0.194c-0.126,-0 -0.23,0.077 -0.235,0.192l0.086,-0c0.003,-0.073 0.072,-0.116 0.147,-0.116c0.081,0 0.133,0.049 0.133,0.123c-0,0.076 -0.06,0.126 -0.147,0.126l-0.058,0l-0,0.078l0.058,0c0.111,0 0.172,0.056 0.172,0.137c0,0.077 -0.067,0.129 -0.16,0.129c-0.085,-0 -0.151,-0.044 -0.157,-0.114l-0.089,0c0.005,0.115 0.106,0.192 0.247,0.192Z" style="fill:#121212;fill-rule:nonzero;"/></g><g transform="matrix(30,0,0,30,327.026,186.4)"><path d="M0.312,0.01c0.161,-0 0.253,-0.136 0.253,-0.374c0,-0.235 -0.093,-0.373 -0.253,-0.373c-0.159,-0 -0.252,0.138 -0.252,0.373c-0,0.238 0.092,0.374 0.252,0.374Zm0,-0.078c-0.105,-0 -0.167,-0.106 -0.167,-0.296c-0,-0.189 0.062,-0.297 0.167,-0.297c0.106,0 0.168,0.108 0.168,0.297c0,0.19 -0.062,0.296 -0.168,0.296Z" style="fill:#121212;fill-rule:nonzero;"/></g><g transform="matrix(30,0,0,30,345.776,186.4)"><path d="M0.521,-0.47l-0.311,-0c0.029,-0.121 0.106,-0.185 0.202,-0.185c0.061,0 0.114,0.026 0.159,0.067l0.034,-0.074c-0.051,-0.048 -0.118,-0.075 -0.193,-0.075c-0.146,-0 -0.256,0.1 -0.289,0.267l-0.072,-0l-0.025,0.071l0.089,-0c-0.001,0.012 -0.001,0.023 -0.001,0.035c-0,0.012 -0,0.024 0.001,0.036l-0.064,-0l-0.025,0.071l0.097,-0c0.033,0.167 0.143,0.267 0.289,0.267c0.072,-0 0.142,-0.024 0.192,-0.071l-0.036,-0.074c-0.041,0.036 -0.094,0.063 -0.156,0.063c-0.096,-0 -0.173,-0.065 -0.202,-0.185l0.218,-0l0.032,-0.071l-0.26,-0c-0.001,-0.011 -0.001,-0.024 -0.001,-0.036c-0,-0.012 0,-0.024 0.001,-0.035l0.289,-0l0.032,-0.071Z" style="fill:#121212;fill-rule:nonzero;"/></g><g transform="matrix(30,0,0,30,133.517,245.2)"><path d="M0.321,0.01c0.141,-0 0.246,-0.088 0.246,-0.207c-0,-0.093 -0.055,-0.16 -0.147,-0.175l0,-0.006c0.074,-0.022 0.12,-0.083 0.12,-0.165c-0,-0.103 -0.082,-0.194 -0.216,-0.194c-0.126,-0 -0.23,0.077 -0.235,0.192l0.086,-0c0.003,-0.073 0.072,-0.116 0.147,-0.116c0.081,0 0.133,0.049 0.133,0.123c-0,0.076 -0.06,0.126 -0.147,0.126l-0.058,0l-0,0.078l0.058,0c0.111,0 0.172,0.056 0.172,0.137c0,0.077 -0.067,0.129 -0.16,0.129c-0.085,-0 -0.151,-0.044 -0.157,-0.114l-0.089,0c0.005,0.115 0.106,0.192 0.247,0.192Z" style="fill:#121212;fill-rule:nonzero;"/></g><g transform="matrix(30,0,0,30,152.608,245.2)"><path d="M0.312,-0c0.222,-0 0.347,-0.138 0.347,-0.365c0,-0.226 -0.125,-0.362 -0.337,-0.362l-0.234,-0l0,0.727l0.224,-0Zm-0.136,-0.078l0,-0.571l0.141,-0c0.17,-0 0.257,0.108 0.257,0.284c-0,0.178 -0.087,0.287 -0.267,0.287l-0.131,-0Z" style="fill:#121212;fill-rule:nonzero;"/></g><g transform="matrix(30,0,0,30,182.608,245.2)"><path d="M0.486,-0.545l0.085,-0c-0.004,-0.11 -0.105,-0.192 -0.246,-0.192c-0.139,-0 -0.248,0.081 -0.248,0.203c-0,0.098 0.071,0.156 0.184,0.189l0.09,0.025c0.077,0.022 0.145,0.049 0.145,0.121c-0,0.08 -0.077,0.132 -0.178,0.132c-0.086,0 -0.163,-0.038 -0.17,-0.12l-0.091,-0c0.008,0.119 0.105,0.2 0.261,0.2c0.168,-0 0.263,-0.093 0.263,-0.21c-0,-0.137 -0.129,-0.181 -0.205,-0.201l-0.073,-0.02c-0.054,-0.014 -0.141,-0.042 -0.141,-0.12c-0,-0.07 0.064,-0.121 0.16,-0.121c0.089,-0 0.155,0.042 0.164,0.114Z" style="fill:#121212;fill-rule:nonzero;"/></g><g transform="matrix(30,0,0,30,201.741,245.2)"><path d="M0.314,-0.545l-0.117,-0l0,-0.131l-0.083,-0l-0,0.131l-0.083,-0l0,0.071l0.083,-0l-0,0.34c-0,0.096 0.076,0.141 0.147,0.141c0.032,0 0.051,-0.006 0.063,-0.01l-0.017,-0.075c-0.007,0.001 -0.019,0.004 -0.037,0.004c-0.037,0 -0.073,-0.011 -0.073,-0.082l0,-0.318l0.117,-0l-0,-0.071Z" style="fill:#121212;fill-rule:nonzero;"/></g><g transform="matrix(30,0,0,30,212.651,245.2)"><path d="M0.077,-0l0.084,-0l-0,-0.545l-0.084,-0l-0,0.545Zm0.042,-0.636c0.033,-0 0.06,-0.026 0.06,-0.057c-0,-0.031 -0.027,-0.057 -0.06,-0.057c-0.032,0 -0.059,0.026 -0.059,0.057c-0,0.031 0.027,0.057 0.059,0.057Z" style="fill:#121212;fill-rule:nonzero;"/></g><g transform="matrix(30,0,0,30,219.767,245.2)"><rect x="0.077" y="-0.727" width="0.084" height="0.727" style="fill:#121212;fill-rule:nonzero;"/></g><g transform="matrix(30,0,0,30,226.884,245.2)"><rect x="0.077" y="-0.727" width="0.084" height="0.727" style="fill:#121212;fill-rule:nonzero;"/></g><g transform="matrix(30,0,0,30,294,245.2)"><path d="M0.331,-0.727l-0.088,-0l-0.182,0.12l0,0.09l0.178,-0.118l0.004,0l-0,0.635l0.088,-0l-0,-0.727Z" style="fill:#121212;fill-rule:nonzero;"/></g><g transform="matrix(30,0,0,30,307.935,245.2)"><path d="M0.303,0.01c0.138,-0 0.24,-0.102 0.24,-0.242c-0,-0.141 -0.098,-0.244 -0.232,-0.244c-0.049,0 -0.097,0.018 -0.126,0.041l-0.005,0l0.026,-0.214l0.304,-0l-0,-0.078l-0.378,-0l-0.044,0.358l0.082,0.01c0.031,-0.022 0.082,-0.038 0.127,-0.037c0.093,0 0.16,0.071 0.16,0.166c0,0.093 -0.065,0.162 -0.154,0.162c-0.075,-0 -0.134,-0.048 -0.141,-0.114l-0.085,0c0.005,0.111 0.101,0.192 0.226,0.192Z" style="fill:#121212;fill-rule:nonzero;"/></g><g transform="matrix(30,0,0,30,326.173,245.2)"><path d="M0.312,0.01c0.161,-0 0.253,-0.136 0.253,-0.374c0,-0.235 -0.093,-0.373 -0.253,-0.373c-0.159,-0 -0.252,0.138 -0.252,0.373c-0,0.238 0.092,0.374 0.252,0.374Zm0,-0.078c-0.105,-0 -0.167,-0.106 -0.167,-0.296c-0,-0.189 0.062,-0.297 0.167,-0.297c0.106,0 0.168,0.108 0.168,0.297c0,0.19 -0.062,0.296 -0.168,0.296Z" style="fill:#121212;fill-rule:nonzero;"/></g><g transform="matrix(30,0,0,30,344.923,245.2)"><path d="M0.521,-0.47l-0.311,-0c0.029,-0.121 0.106,-0.185 0.202,-0.185c0.061,0 0.114,0.026 0.159,0.067l0.034,-0.074c-0.051,-0.048 -0.118,-0.075 -0.193,-0.075c-0.146,-0 -0.256,0.1 -0.289,0.267l-0.072,-0l-0.025,0.071l0.089,-0c-0.001,0.012 -0.001,0.023 -0.001,0.035c-0,0.012 -0,0.024 0.001,0.036l-0.064,-0l-0.025,0.071l0.097,-0c0.033,0.167 0.143,0.267 0.289,0.267c0.072,-0 0.142,-0.024 0.192,-0.071l-0.036,-0.074c-0.041,0.036 -0.094,0.063 -0.156,0.063c-0.096,-0 -0.173,-0.065 -0.202,-0.185l0.218,-0l0.032,-0.071l-0.26,-0c-0.001,-0.011 -0.001,-0.024 -0.001,-0.036c-0,-0.012 0,-0.024 0.001,-0.035l0.289,-0l0.032,-0.071Z" style="fill:#121212;fill-rule:nonzero;"/></g><g transform="matrix(30,0,0,30,50.1222,304)"><path d="M0.321,0.01c0.141,-0 0.246,-0.088 0.246,-0.207c-0,-0.093 -0.055,-0.16 -0.147,-0.175l0,-0.006c0.074,-0.022 0.12,-0.083 0.12,-0.165c-0,-0.103 -0.082,-0.194 -0.216,-0.194c-0.126,-0 -0.23,0.077 -0.235,0.192l0.086,-0c0.003,-0.073 0.072,-0.116 0.147,-0.116c0.081,0 0.133,0.049 0.133,0.123c-0,0.076 -0.06,0.126 -0.147,0.126l-0.058,0l-0,0.078l0.058,0c0.111,0 0.172,0.056 0.172,0.137c0,0.077 -0.067,0.129 -0.16,0.129c-0.085,-0 -0.151,-0.044 -0.157,-0.114l-0.089,0c0.005,0.115 0.106,0.192 0.247,0.192Z" style="fill:#121212;fill-rule:nonzero;"/></g><g transform="matrix(30,0,0,30,69.2131,304)"><path d="M0.312,-0c0.222,-0 0.347,-0.138 0.347,-0.365c0,-0.226 -0.125,-0.362 -0.337,-0.362l-0.234,-0l0,0.727l0.224,-0Zm-0.136,-0.078l0,-0.571l0.141,-0c0.17,-0 0.257,0.108 0.257,0.284c-0,0.178 -0.087,0.287 -0.267,0.287l-0.131,-0Z" style="fill:#121212;fill-rule:nonzero;"/></g><g transform="matrix(30,0,0,30,99.2131,304)"><path d="M0.118,-0l0.073,-0.206l0.294,0l0.073,0.206l0.093,-0l-0.267,-0.727l-0.091,-0l-0.267,0.727l0.092,-0Zm0.101,-0.284l0.116,-0.328l0.006,-0l0.116,0.328l-0.238,-0Z" style="fill:#121212;fill-rule:nonzero;"/></g><g transform="matrix(30,0,0,30,119.497,304)"><path d="M0.161,-0.328c-0,-0.095 0.058,-0.149 0.139,-0.149c0.077,-0 0.125,0.051 0.125,0.136l-0,0.341l0.084,-0l-0,-0.347c-0,-0.139 -0.075,-0.206 -0.185,-0.206c-0.083,0 -0.134,0.037 -0.159,0.093l-0.007,-0l-0,-0.085l-0.081,-0l-0,0.545l0.084,-0l-0,-0.328Z" style="fill:#121212;fill-rule:nonzero;"/></g><g transform="matrix(30,0,0,30,137.054,304)"><path d="M0.077,-0l0.084,-0l-0,-0.545l-0.084,-0l-0,0.545Zm0.042,-0.636c0.033,-0 0.06,-0.026 0.06,-0.057c-0,-0.031 -0.027,-0.057 -0.06,-0.057c-0.032,0 -0.059,0.026 -0.059,0.057c-0,0.031 0.027,0.057 0.059,0.057Z" style="fill:#121212;fill-rule:nonzero;"/></g><g transform="matrix(30,0,0,30,144.17,304)"><path d="M0.077,-0l0.084,-0l-0,-0.341c-0,-0.08 0.058,-0.136 0.123,-0.136c0.064,-0 0.108,0.041 0.108,0.103l0,0.374l0.085,-0l0,-0.355c0,-0.07 0.044,-0.122 0.121,-0.122c0.06,-0 0.111,0.031 0.111,0.112l-0,0.365l0.084,-0l-0,-0.365c-0,-0.128 -0.069,-0.188 -0.167,-0.188c-0.078,0 -0.135,0.036 -0.163,0.093l-0.006,-0c-0.027,-0.058 -0.074,-0.093 -0.146,-0.093c-0.071,0 -0.124,0.035 -0.146,0.093l-0.007,-0l-0,-0.085l-0.081,-0l-0,0.545Z" style="fill:#121212;fill-rule:nonzero;"/></g><g transform="matrix(30,0,0,30,170.25,304)"><path d="M0.237,0.013c0.095,-0 0.145,-0.051 0.162,-0.087l0.004,0l0,0.074l0.084,0l0,-0.359c0,-0.174 -0.132,-0.194 -0.201,-0.194c-0.083,0 -0.177,0.029 -0.219,0.128l0.079,0.029c0.019,-0.04 0.062,-0.083 0.142,-0.083c0.077,0 0.115,0.041 0.115,0.111l0,0.003c0,0.04 -0.041,0.037 -0.14,0.05c-0.101,0.013 -0.212,0.035 -0.212,0.16c0,0.107 0.083,0.168 0.186,0.168Zm0.013,-0.075c-0.067,-0 -0.115,-0.03 -0.115,-0.089c-0,-0.063 0.058,-0.083 0.124,-0.092c0.035,-0.004 0.13,-0.014 0.144,-0.031l0,0.077c0,0.068 -0.054,0.135 -0.153,0.135Z" style="fill:#121212;fill-rule:nonzero;"/></g><g transform="matrix(30,0,0,30,187.168,304)"><path d="M0.314,-0.545l-0.117,-0l0,-0.131l-0.083,-0l-0,0.131l-0.083,-0l0,0.071l0.083,-0l-0,0.34c-0,0.096 0.076,0.141 0.147,0.141c0.032,0 0.051,-0.006 0.063,-0.01l-0.017,-0.075c-0.007,0.001 -0.019,0.004 -0.037,0.004c-0.037,0 -0.073,-0.011 -0.073,-0.082l0,-0.318l0.117,-0l-0,-0.071Z" style="fill:#121212;fill-rule:nonzero;"/></g><g transform="matrix(30,0,0,30,197.906,304)"><path d="M0.305,0.011c0.111,0 0.192,-0.055 0.218,-0.137l-0.081,-0.023c-0.022,0.057 -0.071,0.085 -0.137,0.085c-0.098,0 -0.166,-0.063 -0.17,-0.18l0.396,-0l0,-0.036c0,-0.203 -0.12,-0.273 -0.234,-0.273c-0.148,0 -0.246,0.117 -0.246,0.285c0,0.167 0.097,0.279 0.254,0.279Zm-0.17,-0.328c0.006,-0.085 0.066,-0.16 0.162,-0.16c0.091,-0 0.149,0.068 0.149,0.16l-0.311,0Z" style="fill:#121212;fill-rule:nonzero;"/></g><g transform="matrix(30,0,0,30,215.378,304)"><path d="M0.283,0.011c0.105,0 0.14,-0.065 0.159,-0.095l0.01,0l-0,0.084l0.081,-0l-0,-0.727l-0.084,-0l-0,0.268l-0.007,0c-0.019,-0.028 -0.051,-0.094 -0.158,-0.094c-0.138,0 -0.233,0.11 -0.233,0.282c0,0.173 0.095,0.282 0.232,0.282Zm0.011,-0.075c-0.105,0 -0.159,-0.092 -0.159,-0.209c-0,-0.115 0.052,-0.204 0.159,-0.204c0.102,-0 0.156,0.082 0.156,0.204c0,0.124 -0.055,0.209 -0.156,0.209Z" style="fill:#121212;fill-rule:nonzero;"/></g><g transform="matrix(30,0,0,30,294,304)"><path d="M0.331,-0.727l-0.088,-0l-0.182,0.12l0,0.09l0.178,-0.118l0.004,0l-0,0.635l0.088,-0l-0,-0.727Z" style="fill:#121212;fill-rule:nonzero;"/></g><g transform="matrix(30,0,0,30,307.935,304)"><path d="M0.308,0.01c0.145,-0 0.247,-0.085 0.247,-0.203c-0,-0.092 -0.062,-0.17 -0.14,-0.185l-0,-0.004c0.068,-0.018 0.113,-0.085 0.113,-0.162c-0,-0.111 -0.093,-0.193 -0.22,-0.193c-0.128,-0 -0.221,0.082 -0.22,0.193c-0.001,0.077 0.044,0.144 0.114,0.162l-0,0.004c-0.08,0.015 -0.142,0.093 -0.141,0.185c-0.001,0.118 0.101,0.203 0.247,0.203Zm0,-0.078c-0.1,-0 -0.161,-0.051 -0.16,-0.129c-0.001,-0.082 0.067,-0.141 0.16,-0.141c0.092,-0 0.16,0.059 0.161,0.141c-0.001,0.078 -0.062,0.129 -0.161,0.129Zm0,-0.345c-0.079,-0 -0.135,-0.05 -0.135,-0.125c-0,-0.074 0.054,-0.123 0.135,-0.123c0.08,0 0.134,0.049 0.135,0.123c-0.001,0.075 -0.057,0.125 -0.135,0.125Z" style="fill:#121212;fill-rule:nonzero;"/></g><g transform="matrix(30,0,0,30,326.429,304)"><path d="M0.312,0.01c0.161,-0 0.253,-0.136 0.253,-0.374c0,-0.235 -0.093,-0.373 -0.253,-0.373c-0.159,-0 -0.252,0.138 -0.252,0.373c-0,0.238 0.092,0.374 0.252,0.374Zm0,-0.078c-0.105,-0 -0.167,-0.106 -0.167,-0.296c-0,-0.189 0.062,-0.297 0.167,-0.297c0.106,0 0.168,0.108 0.168,0.297c0,0.19 -0.062,0.296 -0.168,0.296Z" style="fill:#121212;fill-rule:nonzero;"/></g><g transform="matrix(30,0,0,30,345.179,304)"><path d="M0.521,-0.47l-0.311,-0c0.029,-0.121 0.106,-0.185 0.202,-0.185c0.061,0 0.114,0.026 0.159,0.067l0.034,-0.074c-0.051,-0.048 -0.118,-0.075 -0.193,-0.075c-0.146,-0 -0.256,0.1 -0.289,0.267l-0.072,-0l-0.025,0.071l0.089,-0c-0.001,0.012 -0.001,0.023 -0.001,0.035c-0,0.012 -0,0.024 0.001,0.036l-0.064,-0l-0.025,0.071l0.097,-0c0.033,0.167 0.143,0.267 0.289,0.267c0.072,-0 0.142,-0.024 0.192,-0.071l-0.036,-0.074c-0.041,0.036 -0.094,0.063 -0.156,0.063c-0.096,-0 -0.173,-0.065 -0.202,-0.185l0.218,-0l0.032,-0.071l-0.26,-0c-0.001,-0.011 -0.001,-0.024 -0.001,-0.036c-0,-0.012 0,-0.024 0.001,-0.035l0.289,-0l0.032,-0.071Z" style="fill:#121212;fill-rule:nonzero;"/></g><g transform="matrix(30,0,0,30,131.557,362.8)"><path d="M0.673,-0.5c-0.027,-0.149 -0.146,-0.237 -0.292,-0.237c-0.186,-0 -0.321,0.143 -0.321,0.373c-0,0.23 0.135,0.374 0.321,0.374c0.146,-0 0.265,-0.088 0.292,-0.237l-0.088,-0c-0.021,0.101 -0.108,0.155 -0.204,0.155c-0.132,-0 -0.236,-0.103 -0.236,-0.292c-0,-0.189 0.104,-0.291 0.236,-0.291c0.096,0 0.183,0.054 0.204,0.155l0.088,0Z" style="fill:#121212;fill-rule:nonzero;"/></g><g transform="matrix(30,0,0,30,153.375,362.8)"><path d="M0.077,-0l0.084,-0l-0,-0.345c-0,-0.074 0.058,-0.128 0.137,-0.128c0.023,-0 0.046,0.004 0.051,0.006l0,-0.086c-0.009,-0 -0.031,-0.001 -0.044,-0.001c-0.065,0 -0.122,0.037 -0.142,0.091l-0.005,-0l-0,-0.082l-0.081,-0l-0,0.545Z" style="fill:#121212;fill-rule:nonzero;"/></g><g transform="matrix(30,0,0,30,164.54,362.8)"><path d="M0.42,-0.223c0,0.102 -0.078,0.149 -0.14,0.149c-0.07,0 -0.119,-0.051 -0.119,-0.131l-0,-0.34l-0.084,-0l-0,0.346c-0,0.139 0.074,0.206 0.176,0.206c0.082,0 0.136,-0.044 0.162,-0.099l0.005,-0l0,0.092l0.084,-0l0,-0.545l-0.084,-0l0,0.322Z" style="fill:#121212;fill-rule:nonzero;"/></g><g transform="matrix(30,0,0,30,181.969,362.8)"><path d="M0.161,-0.328c-0,-0.095 0.058,-0.149 0.139,-0.149c0.077,-0 0.125,0.051 0.125,0.136l-0,0.341l0.084,-0l-0,-0.347c-0,-0.139 -0.075,-0.206 -0.185,-0.206c-0.083,0 -0.134,0.037 -0.159,0.093l-0.007,-0l-0,-0.085l-0.081,-0l-0,0.545l0.084,-0l-0,-0.328Z" style="fill:#121212;fill-rule:nonzero;"/></g><g transform="matrix(30,0,0,30,199.526,362.8)"><path d="M0.298,0.011c0.121,0 0.201,-0.073 0.215,-0.17l-0.084,-0c-0.016,0.06 -0.065,0.095 -0.131,0.095c-0.099,0 -0.163,-0.082 -0.163,-0.209c-0,-0.123 0.065,-0.204 0.163,-0.204c0.074,-0 0.118,0.045 0.131,0.095l0.084,-0c-0.014,-0.102 -0.101,-0.171 -0.216,-0.171c-0.148,0 -0.246,0.117 -0.246,0.283c0,0.163 0.094,0.281 0.247,0.281Z" style="fill:#121212;fill-rule:nonzero;"/></g><g transform="matrix(30,0,0,30,216.273,362.8)"><path d="M0.161,-0.328c-0,-0.095 0.06,-0.149 0.143,-0.149c0.079,-0 0.126,0.049 0.126,0.136l0,0.341l0.084,-0l0,-0.347c0,-0.14 -0.074,-0.206 -0.186,-0.206c-0.086,0 -0.135,0.036 -0.16,0.093l-0.007,-0l-0,-0.267l-0.084,-0l-0,0.727l0.084,-0l-0,-0.328Z" style="fill:#121212;fill-rule:nonzero;"/></g><g transform="matrix(30,0,0,30,294,362.8)"><path d="M0.321,0.01c0.141,-0 0.246,-0.088 0.246,-0.207c-0,-0.093 -0.055,-0.16 -0.147,-0.175l0,-0.006c0.074,-0.022 0.12,-0.083 0.12,-0.165c-0,-0.103 -0.082,-0.194 -0.216,-0.194c-0.126,-0 -0.23,0.077 -0.235,0.192l0.086,-0c0.003,-0.073 0.072,-0.116 0.147,-0.116c0.081,0 0.133,0.049 0.133,0.123c-0,0.076 -0.06,0.126 -0.147,0.126l-0.058,0l-0,0.078l0.058,0c0.111,0 0.172,0.056 0.172,0.137c0,0.077 -0.067,0.129 -0.16,0.129c-0.085,-0 -0.151,-0.044 -0.157,-0.114l-0.089,0c0.005,0.115 0.106,0.192 0.247,0.192Z" style="fill:#121212;fill-rule:nonzero;"/></g><g transform="matrix(30,0,0,30,313.091,362.8)"><path d="M0.312,0.01c0.161,-0 0.253,-0.136 0.253,-0.374c0,-0.235 -0.093,-0.373 -0.253,-0.373c-0.159,-0 -0.252,0.138 -0.252,0.373c-0,0.238 0.092,0.374 0.252,0.374Zm0,-0.078c-0.105,-0 -0.167,-0.106 -0.167,-0.296c-0,-0.189 0.062,-0.297 0.167,-0.297c0.106,0 0.168,0.108 0.168,0.297c0,0.19 -0.062,0.296 -0.168,0.296Z" style="fill:#121212;fill-rule:nonzero;"/></g><g transform="matrix(30,0,0,30,331.841,362.8)"><path d="M0.521,-0.47l-0.311,-0c0.029,-0.121 0.106,-0.185 0.202,-0.185c0.061,0 0.114,0.026 0.159,0.067l0.034,-0.074c-0.051,-0.048 -0.118,-0.075 -0.193,-0.075c-0.146,-0 -0.256,0.1 -0.289,0.267l-0.072,-0l-0.025,0.071l0.089,-0c-0.001,0.012 -0.001,0.023 -0.001,0.035c-0,0.012 -0,0.024 0.001,0.036l-0.064,-0l-0.025,0.071l0.097,-0c0.033,0.167 0.143,0.267 0.289,0.267c0.072,-0 0.142,-0.024 0.192,-0.071l-0.036,-0.074c-0.041,0.036 -0.094,0.063 -0.156,0.063c-0.096,-0 -0.173,-0.065 -0.202,-0.185l0.218,-0l0.032,-0.071l-0.26,-0c-0.001,-0.011 -0.001,-0.024 -0.001,-0.036c-0,-0.012 0,-0.024 0.001,-0.035l0.289,-0l0.032,-0.071Z" style="fill:#121212;fill-rule:nonzero;"/></g><g transform="matrix(30,0,0,30,66.1023,419.2)"><path d="M0.673,-0.5c-0.027,-0.149 -0.146,-0.237 -0.292,-0.237c-0.186,-0 -0.321,0.143 -0.321,0.373c-0,0.23 0.135,0.374 0.321,0.374c0.146,-0 0.265,-0.088 0.292,-0.237l-0.088,-0c-0.021,0.101 -0.108,0.155 -0.204,0.155c-0.132,-0 -0.236,-0.103 -0.236,-0.292c-0,-0.189 0.104,-0.291 0.236,-0.291c0.096,0 0.183,0.054 0.204,0.155l0.088,0Z" style="fill:#121212;fill-rule:nonzero;"/></g><g transform="matrix(30,0,0,30,87.9205,419.2)"><path d="M0.298,0.011c0.148,0 0.247,-0.112 0.247,-0.281c0,-0.17 -0.099,-0.283 -0.247,-0.283c-0.147,0 -0.247,0.113 -0.247,0.283c0,0.169 0.1,0.281 0.247,0.281Zm0,-0.075c-0.112,0 -0.163,-0.097 -0.163,-0.206c-0,-0.109 0.051,-0.207 0.163,-0.207c0.113,-0 0.164,0.098 0.164,0.207c-0,0.109 -0.051,0.206 -0.164,0.206Z" style="fill:#121212;fill-rule:nonzero;"/></g><g transform="matrix(30,0,0,30,105.818,419.2)"><path d="M0.077,-0l0.084,-0l-0,-0.341c-0,-0.08 0.058,-0.136 0.123,-0.136c0.064,-0 0.108,0.041 0.108,0.103l0,0.374l0.085,-0l0,-0.355c0,-0.07 0.044,-0.122 0.121,-0.122c0.06,-0 0.111,0.031 0.111,0.112l-0,0.365l0.084,-0l-0,-0.365c-0,-0.128 -0.069,-0.188 -0.167,-0.188c-0.078,0 -0.135,0.036 -0.163,0.093l-0.006,-0c-0.027,-0.058 -0.074,-0.093 -0.146,-0.093c-0.071,0 -0.124,0.035 -0.146,0.093l-0.007,-0l-0,-0.085l-0.081,-0l-0,0.545Z" style="fill:#121212;fill-rule:nonzero;"/></g><g transform="matrix(30,0,0,30,131.898,419.2)"><path d="M0.077,-0l0.084,-0l-0,-0.341c-0,-0.08 0.058,-0.136 0.123,-0.136c0.064,-0 0.108,0.041 0.108,0.103l0,0.374l0.085,-0l0,-0.355c0,-0.07 0.044,-0.122 0.121,-0.122c0.06,-0 0.111,0.031 0.111,0.112l-0,0.365l0.084,-0l-0,-0.365c-0,-0.128 -0.069,-0.188 -0.167,-0.188c-0.078,0 -0.135,0.036 -0.163,0.093l-0.006,-0c-0.027,-0.058 -0.074,-0.093 -0.146,-0.093c-0.071,0 -0.124,0.035 -0.146,0.093l-0.007,-0l-0,-0.085l-0.081,-0l-0,0.545Z" style="fill:#121212;fill-rule:nonzero;"/></g><g transform="matrix(30,0,0,30,157.977,419.2)"><path d="M0.305,0.011c0.111,0 0.192,-0.055 0.218,-0.137l-0.081,-0.023c-0.022,0.057 -0.071,0.085 -0.137,0.085c-0.098,0 -0.166,-0.063 -0.17,-0.18l0.396,-0l0,-0.036c0,-0.203 -0.12,-0.273 -0.234,-0.273c-0.148,0 -0.246,0.117 -0.246,0.285c0,0.167 0.097,0.279 0.254,0.279Zm-0.17,-0.328c0.006,-0.085 0.066,-0.16 0.162,-0.16c0.091,-0 0.149,0.068 0.149,0.16l-0.311,0Z" style="fill:#121212;fill-rule:nonzero;"/></g><g transform="matrix(30,0,0,30,175.449,419.2)"><path d="M0.077,-0l0.084,-0l-0,-0.345c-0,-0.074 0.058,-0.128 0.137,-0.128c0.023,-0 0.046,0.004 0.051,0.006l0,-0.086c-0.009,-0 -0.031,-0.001 -0.044,-0.001c-0.065,0 -0.122,0.037 -0.142,0.091l-0.005,-0l-0,-0.082l-0.081,-0l-0,0.545Z" style="fill:#121212;fill-rule:nonzero;"/></g><g transform="matrix(30,0,0,30,186.102,419.2)"><path d="M0.298,0.011c0.121,0 0.201,-0.073 0.215,-0.17l-0.084,-0c-0.016,0.06 -0.065,0.095 -0.131,0.095c-0.099,0 -0.163,-0.082 -0.163,-0.209c-0,-0.123 0.065,-0.204 0.163,-0.204c0.074,-0 0.118,0.045 0.131,0.095l0.084,-0c-0.014,-0.102 -0.101,-0.171 -0.216,-0.171c-0.148,0 -0.246,0.117 -0.246,0.283c0,0.163 0.094,0.281 0.247,0.281Z" style="fill:#121212;fill-rule:nonzero;"/></g><g transform="matrix(30,0,0,30,202.849,419.2)"><path d="M0.077,-0l0.084,-0l-0,-0.545l-0.084,-0l-0,0.545Zm0.042,-0.636c0.033,-0 0.06,-0.026 0.06,-0.057c-0,-0.031 -0.027,-0.057 -0.06,-0.057c-0.032,0 -0.059,0.026 -0.059,0.057c-0,0.031 0.027,0.057 0.059,0.057Z" style="fill:#121212;fill-rule:nonzero;"/></g><g transform="matrix(30,0,0,30,209.966,419.2)"><path d="M0.237,0.013c0.095,-0 0.145,-0.051 0.162,-0.087l0.004,0l0,0.074l0.084,0l0,-0.359c0,-0.174 -0.132,-0.194 -0.201,-0.194c-0.083,0 -0.177,0.029 -0.219,0.128l0.079,0.029c0.019,-0.04 0.062,-0.083 0.142,-0.083c0.077,0 0.115,0.041 0.115,0.111l0,0.003c0,0.04 -0.041,0.037 -0.14,0.05c-0.101,0.013 -0.212,0.035 -0.212,0.16c0,0.107 0.083,0.168 0.186,0.168Zm0.013,-0.075c-0.067,-0 -0.115,-0.03 -0.115,-0.089c-0,-0.063 0.058,-0.083 0.124,-0.092c0.035,-0.004 0.13,-0.014 0.144,-0.031l0,0.077c0,0.068 -0.054,0.135 -0.153,0.135Z" style="fill:#121212;fill-rule:nonzero;"/></g><g transform="matrix(30,0,0,30,226.884,419.2)"><rect x="0.077" y="-0.727" width="0.084" height="0.727" style="fill:#121212;fill-rule:nonzero;"/></g><g transform="matrix(30,0,0,30,125.08,449.2)"><path d="M0.088,-0l0.426,-0l0,-0.078l-0.338,-0l0,-0.649l-0.088,-0l0,0.727Z" style="fill:#121212;fill-rule:nonzero;"/></g><g transform="matrix(30,0,0,30,141.955,449.2)"><path d="M0.077,-0l0.084,-0l-0,-0.545l-0.084,-0l-0,0.545Zm0.042,-0.636c0.033,-0 0.06,-0.026 0.06,-0.057c-0,-0.031 -0.027,-0.057 -0.06,-0.057c-0.032,0 -0.059,0.026 -0.059,0.057c-0,0.031 0.027,0.057 0.059,0.057Z" style="fill:#121212;fill-rule:nonzero;"/></g><g transform="matrix(30,0,0,30,149.071,449.2)"><path d="M0.298,0.011c0.121,0 0.201,-0.073 0.215,-0.17l-0.084,-0c-0.016,0.06 -0.065,0.095 -0.131,0.095c-0.099,0 -0.163,-0.082 -0.163,-0.209c-0,-0.123 0.065,-0.204 0.163,-0.204c0.074,-0 0.118,0.045 0.131,0.095l0.084,-0c-0.014,-0.102 -0.101,-0.171 -0.216,-0.171c-0.148,0 -0.246,0.117 -0.246,0.283c0,0.163 0.094,0.281 0.247,0.281Z" style="fill:#121212;fill-rule:nonzero;"/></g><g transform="matrix(30,0,0,30,165.818,449.2)"><path d="M0.305,0.011c0.111,0 0.192,-0.055 0.218,-0.137l-0.081,-0.023c-0.022,0.057 -0.071,0.085 -0.137,0.085c-0.098,0 -0.166,-0.063 -0.17,-0.18l0.396,-0l0,-0.036c0,-0.203 -0.12,-0.273 -0.234,-0.273c-0.148,0 -0.246,0.117 -0.246,0.285c0,0.167 0.097,0.279 0.254,0.279Zm-0.17,-0.328c0.006,-0.085 0.066,-0.16 0.162,-0.16c0.091,-0 0.149,0.068 0.149,0.16l-0.311,0Z" style="fill:#121212;fill-rule:nonzero;"/></g><g transform="matrix(30,0,0,30,183.29,449.2)"><path d="M0.161,-0.328c-0,-0.095 0.058,-0.149 0.139,-0.149c0.077,-0 0.125,0.051 0.125,0.136l-0,0.341l0.084,-0l-0,-0.347c-0,-0.139 -0.075,-0.206 -0.185,-0.206c-0.083,0 -0.134,0.037 -0.159,0.093l-0.007,-0l-0,-0.085l-0.081,-0l-0,0.545l0.084,-0l-0,-0.328Z" style="fill:#121212;fill-rule:nonzero;"/></g><g transform="matrix(30,0,0,30,200.847,449.2)"><path d="M0.463,-0.423c-0.026,-0.078 -0.085,-0.13 -0.193,-0.13c-0.115,0 -0.2,0.066 -0.2,0.158c-0,0.075 0.044,0.126 0.144,0.149l0.091,0.022c0.055,0.012 0.081,0.039 0.081,0.076c0,0.047 -0.049,0.086 -0.127,0.086c-0.069,-0 -0.112,-0.03 -0.127,-0.089l-0.079,0.02c0.019,0.093 0.095,0.142 0.207,0.142c0.127,0 0.213,-0.069 0.213,-0.163c0,-0.076 -0.048,-0.124 -0.145,-0.148l-0.081,-0.02c-0.064,-0.016 -0.094,-0.037 -0.094,-0.079c0,-0.047 0.05,-0.081 0.117,-0.081c0.073,-0 0.103,0.04 0.118,0.078l0.075,-0.021Z" style="fill:#121212;fill-rule:nonzero;"/></g><g transform="matrix(30,0,0,30,216.528,449.2)"><path d="M0.305,0.011c0.111,0 0.192,-0.055 0.218,-0.137l-0.081,-0.023c-0.022,0.057 -0.071,0.085 -0.137,0.085c-0.098,0 -0.166,-0.063 -0.17,-0.18l0.396,-0l0,-0.036c0,-0.203 -0.12,-0.273 -0.234,-0.273c-0.148,0 -0.246,0.117 -0.246,0.285c0,0.167 0.097,0.279 0.254,0.279Zm-0.17,-0.328c0.006,-0.085 0.066,-0.16 0.162,-0.16c0.091,-0 0.149,0.068 0.149,0.16l-0.311,0Z" style="fill:#121212;fill-rule:nonzero;"/></g><g transform="matrix(30,0,0,30,294,421.2)"><path d="M0.317,0.01c0.147,0.002 0.243,-0.109 0.243,-0.244c-0,-0.141 -0.104,-0.242 -0.229,-0.242c-0.075,0 -0.139,0.037 -0.179,0.097l-0.006,-0c0.001,-0.177 0.07,-0.28 0.182,-0.28c0.077,-0 0.123,0.048 0.139,0.114l0.087,-0c-0.018,-0.113 -0.104,-0.192 -0.226,-0.192c-0.164,-0 -0.264,0.145 -0.264,0.402c-0,0.269 0.133,0.344 0.253,0.345Zm-0,-0.078c-0.092,-0 -0.158,-0.078 -0.158,-0.165c0,-0.087 0.07,-0.165 0.161,-0.165c0.089,0 0.154,0.073 0.154,0.164c0,0.092 -0.068,0.166 -0.157,0.166Z" style="fill:#121212;fill-rule:nonzero;"/></g><g transform="matrix(30,0,0,30,312.707,421.2)"><path d="M0.303,0.01c0.138,-0 0.24,-0.102 0.24,-0.242c-0,-0.141 -0.098,-0.244 -0.232,-0.244c-0.049,0 -0.097,0.018 -0.126,0.041l-0.005,0l0.026,-0.214l0.304,-0l-0,-0.078l-0.378,-0l-0.044,0.358l0.082,0.01c0.031,-0.022 0.082,-0.038 0.127,-0.037c0.093,0 0.16,0.071 0.16,0.166c0,0.093 -0.065,0.162 -0.154,0.162c-0.075,-0 -0.134,-0.048 -0.141,-0.114l-0.085,0c0.005,0.111 0.101,0.192 0.226,0.192Z" style="fill:#121212;fill-rule:nonzero;"/></g><g transform="matrix(30,0,0,30,330.946,421.2)"><rect x="0.071" y="-0.403" width="0.318" height="0.078" style="fill:#121212;fill-rule:nonzero;"/></g><g transform="matrix(30,0,0,30,344.753,421.2)"><path d="M0.307,-0.737c-0.148,-0.002 -0.243,0.109 -0.243,0.243c-0,0.14 0.104,0.241 0.229,0.241c0.075,0 0.139,-0.037 0.179,-0.096l0.005,-0c0,0.179 -0.069,0.281 -0.182,0.281c-0.076,-0 -0.123,-0.048 -0.139,-0.115l-0.086,-0c0.017,0.115 0.103,0.193 0.225,0.193c0.164,-0 0.265,-0.145 0.265,-0.403c-0,-0.268 -0.134,-0.343 -0.253,-0.344Zm-0,0.078c0.091,-0 0.157,0.078 0.157,0.163c0,0.087 -0.071,0.165 -0.16,0.165c-0.09,0 -0.155,-0.072 -0.155,-0.163c0,-0.091 0.068,-0.165 0.158,-0.165Z" style="fill:#121212;fill-rule:nonzero;"/></g><g transform="matrix(30,0,0,30,363.46,421.2)"><path d="M0.303,0.01c0.138,-0 0.24,-0.102 0.24,-0.242c-0,-0.141 -0.098,-0.244 -0.232,-0.244c-0.049,0 -0.097,0.018 -0.126,0.041l-0.005,0l0.026,-0.214l0.304,-0l-0,-0.078l-0.378,-0l-0.044,0.358l0.082,0.01c0.031,-0.022 0.082,-0.038 0.127,-0.037c0.093,0 0.16,0.071 0.16,0.166c0,0.093 -0.065,0.162 -0.154,0.162c-0.075,-0 -0.134,-0.048 -0.141,-0.114l-0.085,0c0.005,0.111 0.101,0.192 0.226,0.192Z" style="fill:#121212;fill-rule:nonzero;"/></g><g transform="matrix(30,0,0,30,381.699,421.2)"><path d="M0.521,-0.47l-0.311,-0c0.029,-0.121 0.106,-0.185 0.202,-0.185c0.061,0 0.114,0.026 0.159,0.067l0.034,-0.074c-0.051,-0.048 -0.118,-0.075 -0.193,-0.075c-0.146,-0 -0.256,0.1 -0.289,0.267l-0.072,-0l-0.025,0.071l0.089,-0c-0.001,0.012 -0.001,0.023 -0.001,0.035c-0,0.012 -0,0.024 0.001,0.036l-0.064,-0l-0.025,0.071l0.097,-0c0.033,0.167 0.143,0.267 0.289,0.267c0.072,-0 0.142,-0.024 0.192,-0.071l-0.036,-0.074c-0.041,0.036 -0.094,0.063 -0.156,0.063c-0.096,-0 -0.173,-0.065 -0.202,-0.185l0.218,-0l0.032,-0.071l-0.26,-0c-0.001,-0.011 -0.001,-0.024 -0.001,-0.036c-0,-0.012 0,-0.024 0.001,-0.035l0.289,-0l0.032,-0.071Z" style="fill:#121212;fill-rule:nonzero;"/></g></g><path d="M550,995l-0,-915" style="fill:none;stroke:#ccc;stroke-width:8.33px;"/></g></svg>