<?xml version="1.0" encoding="UTF-8" standalone="no"?>
<!DOCTYPE svg PUBLIC "-//W3C//DTD SVG 1.1//EN" "http://www.w3.org/Graphics/SVG/1.1/DTD/svg11.dtd">
<svg width="100%" height="100%" viewBox="0 0 600 600" version="1.1" xmlns="http://www.w3.org/2000/svg" xmlns:xlink="http://www.w3.org/1999/xlink" xml:space="preserve" xmlns:serif="http://www.serif.com/" style="fill-rule:evenodd;clip-rule:evenodd;stroke-linejoin:round;stroke-miterlimit:2;">
  <style>
    #icon {fill: #f5f5f5;}
    @media (prefers-color-scheme: light) {
    #icon {fill: #121212;}
    }
  </style>
    <g transform="matrix(1,0,0,1,-3500,-700)">
        <g id="icon" transform="matrix(1,0,0,1,0,700)">
            <g transform="matrix(0.150238,0,0,0.150238,3618.71,110.667)">
                <g>
                    <path d="M500,0L0,500L0,2300L600,2300L600,2800L1100,2300L1500,2300L2400,1400L2400,0L500,0ZM2200,1300L1800,1700L1400,1700L1050,2050L1050,1700L600,1700L600,200L2200,200L2200,1300ZM1900,550L1700,550L1700,1150L1900,1150L1900,550ZM1350,550L1150,550L1150,1150L1350,1150L1350,550Z"/>
                </g>
            </g>
        </g>
    </g>
</svg>
