<?xml version="1.0" encoding="UTF-8" standalone="no"?><!DOCTYPE svg PUBLIC "-//W3C//DTD SVG 1.1//EN" "http://www.w3.org/Graphics/SVG/1.1/DTD/svg11.dtd"><svg width="100%" height="100%" viewBox="0 0 534 534" version="1.1" xmlns="http://www.w3.org/2000/svg" xmlns:xlink="http://www.w3.org/1999/xlink" xml:space="preserve" xmlns:serif="http://www.serif.com/" style="fill-rule:evenodd;clip-rule:evenodd;stroke-linecap:round;stroke-linejoin:round;stroke-miterlimit:1.5;"><rect id="commercial-lic-icon" x="0" y="0" width="533.333" height="533.333" style="fill:none;"/><path id="Combined-Shape" d="M243.431,100l21.472,-0c24.675,-0 37.927,3.361 49.913,9.771c11.854,6.34 21.157,15.643 27.496,27.496c6.222,11.634 9.571,24.46 9.763,47.766l0.008,2.148l0,23.639c6.047,1.342 10.495,3.227 14.961,5.615c9.817,5.25 17.521,12.954 22.771,22.771c5.215,9.751 7.975,19.445 8.097,45.333l0.005,1.832l-0,77.258c-0,27.27 -2.766,37.188 -8.102,47.165c-5.25,9.817 -12.954,17.521 -22.771,22.771c-9.751,5.215 -19.445,7.975 -45.333,8.097l-1.832,0.005l-131.424,-0c-27.27,-0 -37.188,-2.766 -47.166,-8.102c-9.816,-5.25 -17.521,-12.954 -22.771,-22.771c-5.214,-9.751 -7.974,-19.445 -8.097,-45.333l-0.004,-1.832l-0,-77.258c-0,-27.27 2.765,-37.188 8.101,-47.165c5.25,-9.817 12.955,-17.521 22.771,-22.771c4.02,-2.149 8.024,-3.891 13.193,-5.196l1.768,-0.419l-0,-23.639c-0,-24.676 3.361,-37.927 9.771,-49.914c6.34,-11.853 15.643,-21.156 27.496,-27.496c11.987,-6.41 25.238,-9.771 49.914,-9.771Zm18.423,33.333l-15.356,0l-1.662,0.008c-14.674,0.142 -21.903,2.185 -28.669,5.804c-7.159,3.828 -12.777,9.446 -16.606,16.605c-3.616,6.763 -5.666,13.984 -5.811,30.313l-0,22.27l120.833,0l0,-22.252l-0.008,-1.661c-0.141,-14.675 -2.184,-21.903 -5.803,-28.67c-3.829,-7.159 -9.447,-12.777 -16.605,-16.605c-6.763,-3.617 -13.984,-5.667 -30.313,-5.812Z" style="fill-opacity:0.3;"/><path id="Combined-Shape1" serif:id="Combined-Shape" d="M255.931,87.5l21.472,-0c24.675,-0 37.927,3.361 49.913,9.771c11.854,6.34 21.157,15.643 27.496,27.496c6.222,11.634 9.571,24.46 9.763,47.766l0.008,2.148l0,23.639c6.047,1.342 10.495,3.227 14.961,5.615c9.817,5.25 17.521,12.954 22.771,22.771c5.215,9.751 7.975,19.445 8.097,45.333l0.005,1.832l-0,77.258c-0,27.27 -2.766,37.188 -8.102,47.165c-5.25,9.817 -12.954,17.521 -22.771,22.771c-9.751,5.215 -19.445,7.975 -45.333,8.097l-1.832,0.005l-131.424,-0c-27.27,-0 -37.188,-2.766 -47.166,-8.102c-9.816,-5.25 -17.521,-12.954 -22.771,-22.771c-5.214,-9.751 -7.974,-19.445 -8.097,-45.333l-0.004,-1.832l-0,-77.258c-0,-27.27 2.765,-37.188 8.101,-47.165c5.25,-9.817 12.955,-17.521 22.771,-22.771c4.02,-2.149 8.024,-3.891 13.193,-5.196l1.768,-0.419l-0,-23.639c-0,-24.676 3.361,-37.927 9.771,-49.914c6.34,-11.853 15.643,-21.156 27.496,-27.496c11.987,-6.41 25.238,-9.771 49.914,-9.771Zm18.423,33.333l-15.356,0l-1.662,0.008c-14.674,0.142 -21.903,2.185 -28.669,5.804c-7.159,3.828 -12.777,9.446 -16.606,16.605c-3.616,6.763 -5.666,13.984 -5.811,30.313l-0,22.27l120.833,0l0,-22.252l-0.008,-1.661c-0.141,-14.675 -2.184,-21.903 -5.803,-28.67c-3.829,-7.159 -9.447,-12.777 -16.605,-16.605c-6.763,-3.617 -13.984,-5.667 -30.313,-5.812Z" style="fill:#f067fc;"/><clipPath id="_clip1"><path d="M255.931,87.5l21.472,-0c24.675,-0 37.927,3.361 49.913,9.771c11.854,6.34 21.157,15.643 27.496,27.496c6.222,11.634 9.571,24.46 9.763,47.766l0.008,2.148l0,23.639c6.047,1.342 10.495,3.227 14.961,5.615c9.817,5.25 17.521,12.954 22.771,22.771c5.215,9.751 7.975,19.445 8.097,45.333l0.005,1.832l-0,77.258c-0,27.27 -2.766,37.188 -8.102,47.165c-5.25,9.817 -12.954,17.521 -22.771,22.771c-9.751,5.215 -19.445,7.975 -45.333,8.097l-1.832,0.005l-131.424,-0c-27.27,-0 -37.188,-2.766 -47.166,-8.102c-9.816,-5.25 -17.521,-12.954 -22.771,-22.771c-5.214,-9.751 -7.974,-19.445 -8.097,-45.333l-0.004,-1.832l-0,-77.258c-0,-27.27 2.765,-37.188 8.101,-47.165c5.25,-9.817 12.955,-17.521 22.771,-22.771c4.02,-2.149 8.024,-3.891 13.193,-5.196l1.768,-0.419l-0,-23.639c-0,-24.676 3.361,-37.927 9.771,-49.914c6.34,-11.853 15.643,-21.156 27.496,-27.496c11.987,-6.41 25.238,-9.771 49.914,-9.771Zm18.423,33.333l-15.356,0l-1.662,0.008c-14.674,0.142 -21.903,2.185 -28.669,5.804c-7.159,3.828 -12.777,9.446 -16.606,16.605c-3.616,6.763 -5.666,13.984 -5.811,30.313l-0,22.27l120.833,0l0,-22.252l-0.008,-1.661c-0.141,-14.675 -2.184,-21.903 -5.803,-28.67c-3.829,-7.159 -9.447,-12.777 -16.605,-16.605c-6.763,-3.617 -13.984,-5.667 -30.313,-5.812Z"/></clipPath><g clip-path="url(#_clip1)"><path d="M206.017,120.841c49.914,-20.841 135.65,-33.341 139.816,41.659" style="fill:none;stroke:#fff;stroke-opacity:0.35;stroke-width:45.83px;"/><path d="M141.667,195.833c-8.711,104.167 6.25,200.232 125,200.232c50,-0 139.583,4.167 166.666,-21.065c15.545,-14.482 -16.666,116.667 -154.166,108.333c-137.5,-8.333 -237.5,-37.5 -208.334,-137.5c29.167,-100 79.573,-254.505 70.834,-150Z" style="fill-opacity:0.15;"/></g><path d="M266.667,370.832c31.161,0 56.356,-25.195 56.249,-56.249c-0.107,-31.055 -25.088,-56.25 -56.249,-56.25c-30.948,0 -56.143,25.195 -56.25,56.25c-0.106,31.054 25.302,56.249 56.25,56.249Zm-0,-12.358c-24.237,0 -43.998,-19.762 -43.892,-43.838c0.107,-24.236 19.762,-43.945 43.892,-43.945c24.236,0 43.785,19.602 43.891,43.945c0.107,24.183 -19.549,43.838 -43.891,43.838Zm-31.108,-43.891c0,17.471 14.169,31.64 31.64,31.64c15.128,-0 26.74,-10.653 28.764,-24.822l-12.89,-0c-1.492,7.297 -7.671,12.464 -15.874,12.464c-10.653,0 -19.282,-8.629 -19.282,-19.282c-0,-10.654 8.629,-19.283 19.282,-19.283c8.203,0 15.501,5.167 16.939,12.465l12.891,-0c-2.025,-14.169 -14.702,-24.823 -29.83,-24.823c-17.471,0 -31.64,14.169 -31.64,31.641Z" style="fill:#fff;fill-rule:nonzero;"/></svg>