<?xml version="1.0" encoding="UTF-8" standalone="no"?>
<!DOCTYPE svg PUBLIC "-//W3C//DTD SVG 1.1//EN" "http://www.w3.org/Graphics/SVG/1.1/DTD/svg11.dtd">
<svg width="100%" height="100%" viewBox="0 0 600 600" version="1.1" xmlns="http://www.w3.org/2000/svg" xmlns:xlink="http://www.w3.org/1999/xlink" xml:space="preserve" xmlns:serif="http://www.serif.com/" style="fill-rule:evenodd;clip-rule:evenodd;stroke-linejoin:round;stroke-miterlimit:2;">
    <g transform="matrix(1,0,0,1,-4900,-700)">
        <g id="linktree-logo-mono" transform="matrix(1,0,0,1,1400,700)">
            <rect x="3500" y="0" width="600" height="600" style="fill:none;"/>
            <g id="path69" transform="matrix(1.07672,0,0,1.07672,-1798.93,-787.483)">
                <path d="M5150.16,844.771C5147.11,839.282 5141.32,835.877 5135.04,835.877C5128.76,835.877 5122.97,839.282 5119.92,844.771L5006.92,1049.77C5001.66,1060.3 5009.54,1072.13 5021.37,1072.13L5097.61,1072.13L5097.61,1149.64C5097.61,1157.55 5104.16,1164.12 5112.04,1164.12L5156.72,1164.12C5164.62,1164.12 5171.17,1157.55 5171.17,1149.67L5171.17,1072.13L5150.16,1072.13C5141.66,1072.23 5134.38,1066.07 5133.08,1057.67C5133.08,1055.05 5133.08,1052.42 5134.38,1049.77L5197.46,935.441L5150.16,844.771ZM5249.86,844.771C5252.92,839.292 5258.7,835.896 5264.97,835.896C5271.24,835.896 5277.02,839.292 5280.08,844.771L5393.08,1049.77C5398.34,1060.3 5390.46,1072.13 5378.63,1072.13L5303.74,1072.13L5303.74,1149.64C5303.74,1157.55 5297.16,1164.12 5289.26,1164.12L5241.96,1164.12C5234.01,1164.05 5227.57,1157.62 5227.5,1149.67L5227.5,1072.13L5248.54,1072.13C5257.03,1072.23 5264.32,1066.07 5265.62,1057.67C5265.62,1055.05 5265.62,1052.42 5264.3,1049.77L5201.24,935.462L5249.86,844.771Z" style="fill:rgb(217,217,217);fill-rule:nonzero;"/>
            </g>
        </g>
    </g>
</svg>
