<?xml version="1.0" encoding="UTF-8" standalone="no"?>
<!DOCTYPE svg PUBLIC "-//W3C//DTD SVG 1.1//EN" "http://www.w3.org/Graphics/SVG/1.1/DTD/svg11.dtd">
<svg width="100%" height="100%" viewBox="0 0 600 600" version="1.1" xmlns="http://www.w3.org/2000/svg" xmlns:xlink="http://www.w3.org/1999/xlink" xml:space="preserve" xmlns:serif="http://www.serif.com/" style="fill-rule:evenodd;clip-rule:evenodd;stroke-linejoin:round;stroke-miterlimit:2;">
    <g id="link-icon-mono" transform="matrix(1,0,0,1,-3500,5.68434e-14)">
        <rect x="3500" y="0" width="600" height="600" style="fill:none;"/>
        <g transform="matrix(0.924784,0,0,0.924784,271.723,51.3416)">
            <path d="M3832.15,384.591C3799.88,396.851 3761.98,389.98 3736,364L3616,243.998C3580.68,208.675 3580.68,151.32 3616,115.998C3651.32,80.675 3708.68,80.675 3744,115.998L3864,236C3891.77,263.771 3897.71,305.16 3881.8,338.741L3847.06,303.996C3848.21,290.604 3843.65,276.822 3833.41,266.585L3713.41,146.583C3694.97,128.14 3665.03,128.14 3646.58,146.583C3628.14,165.025 3628.14,194.971 3646.58,213.413C3646.58,213.413 3766.59,333.415 3766.59,333.415C3774.39,341.22 3784.26,345.722 3794.44,346.883L3832.15,384.591Z" style="fill:rgb(217,217,217);"/>
        </g>
        <g transform="matrix(0.924784,0,0,0.924784,410.896,104.764)">
            <path d="M3647.85,95.407C3680.12,83.147 3718.02,90.018 3744,115.998L3864,236C3899.32,271.323 3899.32,328.677 3864,364C3828.68,399.323 3771.32,399.323 3736,364L3616,243.998C3588.23,216.227 3582.29,174.838 3598.2,141.257L3632.94,176.002C3631.79,189.394 3636.35,203.176 3646.58,213.413C3646.58,213.413 3766.59,333.415 3766.59,333.415C3785.03,351.858 3814.97,351.858 3833.41,333.415C3851.86,314.973 3851.86,285.027 3833.41,266.585L3713.41,146.583C3705.61,138.778 3695.74,134.276 3685.56,133.115L3647.85,95.407Z" style="fill:rgb(217,217,217);"/>
        </g>
    </g>
</svg>
