<?xml version="1.0" encoding="UTF-8" standalone="no"?>
<!DOCTYPE svg PUBLIC "-//W3C//DTD SVG 1.1//EN" "http://www.w3.org/Graphics/SVG/1.1/DTD/svg11.dtd">
<svg width="100%" height="100%" viewBox="0 0 600 600" version="1.1" xmlns="http://www.w3.org/2000/svg" xmlns:xlink="http://www.w3.org/1999/xlink" xml:space="preserve" xmlns:serif="http://www.serif.com/" style="fill-rule:evenodd;clip-rule:evenodd;stroke-linejoin:round;stroke-miterlimit:2;">
    <g id="link-icon-mono" transform="matrix(1,0,0,1,-3500,5.68434e-14)">
        <rect x="3500" y="0" width="600" height="600" style="fill:none;"/>
        <g transform="matrix(0.924784,0,0,0.924784,271.723,51.3416)">
            <path d="M3830.18,385.334C3798.34,396.563 3761.45,389.45 3736,364L3616,243.998C3580.68,208.675 3580.68,151.32 3616,115.998C3651.32,80.675 3708.68,80.675 3744,115.998L3864,236C3891.26,263.258 3897.48,303.638 3882.65,336.875L3847.18,301.405C3847.6,288.846 3842.99,276.164 3833.41,266.585L3713.41,146.583C3694.97,128.14 3665.03,128.14 3646.58,146.583C3628.14,165.025 3628.14,194.971 3646.58,213.413C3646.58,213.413 3766.59,333.415 3766.59,333.415C3773.58,340.407 3782.22,344.748 3791.27,346.426L3830.18,385.334Z" style="fill:rgb(217,217,217);"/>
        </g>
        <g transform="matrix(0.924784,0,0,0.924784,410.896,104.764)">
            <path d="M3649.82,94.664C3681.66,83.435 3718.55,90.548 3744,115.998L3864,236C3899.32,271.323 3899.32,328.677 3864,364C3828.68,399.323 3771.32,399.323 3736,364L3616,243.998C3588.74,216.739 3582.52,176.36 3597.35,143.123L3632.82,178.593C3632.4,191.152 3637,203.834 3646.58,213.413C3646.58,213.413 3766.59,333.415 3766.59,333.415C3785.03,351.858 3814.97,351.858 3833.41,333.415C3851.86,314.973 3851.86,285.027 3833.41,266.585L3713.41,146.583C3706.42,139.591 3697.78,135.25 3688.73,133.572L3649.82,94.664Z" style="fill:rgb(217,217,217);"/>
        </g>
    </g>
</svg>
