<?xml version="1.0" encoding="UTF-8" standalone="no"?><!DOCTYPE svg PUBLIC "-//W3C//DTD SVG 1.1//EN" "http://www.w3.org/Graphics/SVG/1.1/DTD/svg11.dtd"><svg width="100%" height="100%" viewBox="0 0 534 534" version="1.1" xmlns="http://www.w3.org/2000/svg" xmlns:xlink="http://www.w3.org/1999/xlink" xml:space="preserve" xmlns:serif="http://www.serif.com/" style="fill-rule:evenodd;clip-rule:evenodd;stroke-linecap:round;stroke-linejoin:round;stroke-miterlimit:1.5;"><rect id="mograph-icon" x="0" y="0" width="533.333" height="533.333" style="fill:none;"/><g id="mograph-icon1" serif:id="mograph-icon"><path d="M351.2,245.583c-0,-37.318 -30.298,-67.616 -67.617,-67.616l-135.232,-0c-37.318,-0 -67.616,30.298 -67.616,67.616l-0,135.233c-0,37.318 30.298,67.616 67.616,67.616l135.232,-0c37.319,-0 67.617,-30.298 67.617,-67.616l-0,-135.233Z" style="fill-opacity:0.3;"/><path d="M401.775,45.14l-5.74,81.905c-0.214,3.063 0.592,6.111 2.294,8.666c1.702,2.555 4.203,4.474 7.112,5.457l77.788,26.276l-79.67,19.851c-2.98,0.743 -5.629,2.452 -7.533,4.86c-1.904,2.408 -2.957,5.38 -2.992,8.45l-0.952,82.101l-43.5,-69.637c-1.626,-2.604 -4.07,-4.595 -6.949,-5.662c-2.879,-1.067 -6.03,-1.15 -8.961,-0.235l-78.377,24.465l52.787,-62.889c1.973,-2.352 3.112,-5.291 3.237,-8.359c0.125,-3.068 -0.77,-6.09 -2.546,-8.595l-47.487,-66.981l76.123,30.769c2.847,1.151 5.994,1.325 8.95,0.496c2.957,-0.828 5.555,-2.614 7.388,-5.077l49.028,-65.861Z" style="fill:none;stroke:#ee7542;stroke-width:12.5px;"/><path d="M365.244,231.539c-0,-37.318 -30.298,-67.616 -67.616,-67.616l-135.233,-0c-37.318,-0 -67.616,30.298 -67.616,67.616l-0,135.233c-0,37.318 30.298,67.616 67.616,67.616l135.233,-0c37.318,-0 67.616,-30.298 67.616,-67.616l-0,-135.233Z" style="fill:#28e67d;"/><clipPath id="_clip1"><path d="M365.244,231.539c-0,-37.318 -30.298,-67.616 -67.616,-67.616l-135.233,-0c-37.318,-0 -67.616,30.298 -67.616,67.616l-0,135.233c-0,37.318 30.298,67.616 67.616,67.616l135.233,-0c37.318,-0 67.616,-30.298 67.616,-67.616l-0,-135.233Z"/></clipPath><g clip-path="url(#_clip1)"><path d="M44.673,172.938c-22.018,243.94 59.121,329.45 320.571,302.54" style="fill:none;stroke:#0aaf55;stroke-width:162.5px;"/></g><path d="M217.17,199.985l67.617,-0c27.046,-0 36.062,18.031 36.062,36.062l-0,27.046" style="fill:none;stroke:#fff;stroke-opacity:0.7;stroke-width:25px;"/><path d="M244.87,131.326c19.012,-31.262 53.4,-52.159 92.63,-52.159c59.791,-0 108.333,48.542 108.333,108.333c0,29.096 -11.495,55.529 -30.189,75l46.856,0" style="fill:none;stroke:#eecc42;stroke-width:25px;"/></g></svg>