<?xml version="1.0" encoding="UTF-8" standalone="no"?><!DOCTYPE svg PUBLIC "-//W3C//DTD SVG 1.1//EN" "http://www.w3.org/Graphics/SVG/1.1/DTD/svg11.dtd"><svg width="100%" height="100%" viewBox="0 0 534 534" version="1.1" xmlns="http://www.w3.org/2000/svg" xmlns:xlink="http://www.w3.org/1999/xlink" xml:space="preserve" xmlns:serif="http://www.serif.com/" style="fill-rule:evenodd;clip-rule:evenodd;stroke-linecap:round;stroke-linejoin:round;stroke-miterlimit:1.5;"><rect id="music-icon" x="0" y="0" width="533.333" height="533.333" style="fill:none;"/><path d="M309.838,425.998l-103.009,0c-37.147,0 -50.617,-3.867 -64.198,-11.13c-13.58,-7.263 -24.238,-17.921 -31.5,-31.501c-7.263,-13.58 -11.131,-27.051 -11.131,-64.197l0,-103.01c0,-37.146 3.868,-50.617 11.131,-64.197c7.262,-13.58 17.92,-24.238 31.5,-31.501c13.581,-7.263 27.051,-11.13 64.198,-11.13l103.009,-0c37.147,-0 50.617,3.867 64.197,11.13c13.58,7.263 24.238,17.921 31.501,31.501c7.263,13.58 11.131,27.051 11.131,64.197l-0,103.01c-0,37.146 -3.868,50.617 -11.131,64.197c-7.263,13.58 -17.921,24.238 -31.501,31.501c-13.58,7.263 -27.05,11.13 -64.197,11.13Z" style="fill-opacity:0.3;fill-rule:nonzero;"/><path d="M322.338,409.332l-103.009,-0c-37.147,-0 -50.617,-3.868 -64.198,-11.131c-13.58,-7.263 -24.238,-17.921 -31.5,-31.501c-7.263,-13.58 -11.131,-27.05 -11.131,-64.197l0,-103.009c0,-37.147 3.868,-50.617 11.131,-64.198c7.262,-13.58 17.92,-24.238 31.5,-31.5c13.581,-7.263 27.051,-11.131 64.198,-11.131l103.009,0c37.147,0 50.617,3.868 64.197,11.131c13.58,7.262 24.238,17.92 31.501,31.5c7.263,13.581 11.131,27.051 11.131,64.198l-0,103.009c-0,37.147 -3.868,50.617 -11.131,64.197c-7.263,13.58 -17.921,24.238 -31.501,31.501c-13.58,7.263 -27.05,11.131 -64.197,11.131Z" style="fill:#9541f0;fill-rule:nonzero;"/><clipPath id="_clip1"><path d="M322.338,409.332l-103.009,-0c-37.147,-0 -50.617,-3.868 -64.198,-11.131c-13.58,-7.263 -24.238,-17.921 -31.5,-31.501c-7.263,-13.58 -11.131,-27.05 -11.131,-64.197l0,-103.009c0,-37.147 3.868,-50.617 11.131,-64.198c7.262,-13.58 17.92,-24.238 31.5,-31.5c13.581,-7.263 27.051,-11.131 64.198,-11.131l103.009,0c37.147,0 50.617,3.868 64.197,11.131c13.58,7.262 24.238,17.92 31.501,31.5c7.263,13.581 11.131,27.051 11.131,64.198l-0,103.009c-0,37.147 -3.868,50.617 -11.131,64.197c-7.263,13.58 -17.921,24.238 -31.501,31.501c-13.58,7.263 -27.05,11.131 -64.197,11.131Z" clip-rule="nonzero"/></clipPath><g clip-path="url(#_clip1)"><path d="M137.5,79.167c0,104.166 4.167,213.968 8.333,241.666c4.167,27.699 31.84,54.167 61.254,58.334c29.415,4.166 184.79,-0 200.099,-0c62.708,-0 30.314,84.563 -61.353,84.563c-91.666,0 -304.166,40.437 -304.166,-142.897c-0,-183.333 -58.334,-241.666 37.5,-241.666c95.833,-0 58.333,-104.167 58.333,-0Z" style="fill-opacity:0.15;"/></g><path d="M317.471,235.6c18.254,10.294 18.254,20.625 -0,30.918c-9.612,5.421 -43.333,24.435 -63.256,35.67c-19.923,11.234 -26.047,2.965 -26.047,-14.617l0,-76.205c0,-15.872 4.82,-23.404 26.047,-11.435c10.13,5.713 45.002,25.376 63.256,35.669Z" style="fill:#fff;"/><path d="M190.915,381.212c-91.667,8.333 -99.379,74.649 -53.415,81.288c45.833,6.621 60.319,-13.972 56.624,-50c-6.553,-63.889 -14.957,-145.833 -14.957,-145.833c-0,-0 37.5,37.5 83.333,33.333" style="fill:none;stroke:#000;stroke-opacity:0.3;stroke-width:25px;"/><path d="M366.835,316.269c-63.344,-16.135 -84.216,26.437 -55.016,41.769c29.117,15.289 43.693,4.934 49.753,-20.062c10.747,-44.325 24.53,-101.178 24.53,-101.178c0,0 16.224,33.989 47.896,42.056" style="fill:none;stroke:#000;stroke-opacity:0.3;stroke-width:25px;"/><path d="M203.415,364.545c-91.667,8.333 -99.379,74.649 -53.415,81.288c45.833,6.621 60.319,-13.971 56.624,-50c-6.553,-63.889 -14.957,-145.833 -14.957,-145.833c-0,-0 37.5,37.5 83.333,33.333" style="fill:none;stroke:#ef3183;stroke-width:25px;"/><path d="M379.335,299.602c-63.344,-16.134 -84.216,26.437 -55.016,41.77c29.117,15.289 43.693,4.934 49.753,-20.063c10.747,-44.325 24.53,-101.177 24.53,-101.177c0,-0 16.224,33.988 47.896,42.055" style="fill:none;stroke:#ef3183;stroke-width:25px;"/></svg>