<?xml version="1.0" encoding="UTF-8" standalone="no"?><!DOCTYPE svg PUBLIC "-//W3C//DTD SVG 1.1//EN" "http://www.w3.org/Graphics/SVG/1.1/DTD/svg11.dtd"><svg width="100%" height="100%" viewBox="0 0 534 534" version="1.1" xmlns="http://www.w3.org/2000/svg" xmlns:xlink="http://www.w3.org/1999/xlink" xml:space="preserve" xmlns:serif="http://www.serif.com/" style="fill-rule:evenodd;clip-rule:evenodd;stroke-linecap:round;stroke-linejoin:round;stroke-miterlimit:1.5;"><rect id="photo-editing-icon" x="0" y="0" width="533.333" height="533.333" style="fill:none;"/><clipPath id="_clip1"><rect id="photo-editing-icon1" serif:id="photo-editing-icon" x="0" y="0" width="533.333" height="533.333"/></clipPath><g clip-path="url(#_clip1)"><path d="M466.667,190c-0,-31.275 -25.392,-56.667 -56.667,-56.667c-0,0 -303.333,0 -303.333,0c-31.276,0 -56.667,25.392 -56.667,56.667c0,0 0,186.667 0,186.667c0,31.275 25.391,56.666 56.667,56.666c-0,0 303.333,0 303.333,0c31.275,0 56.667,-25.391 56.667,-56.666l-0,-186.667Z" style="fill-opacity:0.3;"/><path d="M458.333,173.333c0,-22.076 -17.923,-40 -40,-40l-303.333,0c-22.077,0 -40,17.924 -40,40l0,186.667c0,22.077 17.923,40 40,40l303.333,0c22.077,0 40,-17.923 40,-40l0,-186.667Z" style="fill:#e4e4e4;"/><clipPath id="_clip2"><path d="M458.333,173.333c0,-22.076 -17.923,-40 -40,-40l-303.333,0c-22.077,0 -40,17.924 -40,40l0,186.667c0,22.077 17.923,40 40,40l303.333,0c22.077,0 40,-17.923 40,-40l0,-186.667Z"/></clipPath><g clip-path="url(#_clip2)"><path d="M210.572,247.386c-2.885,-5.466 -8.558,-8.886 -14.739,-8.886c-6.18,0 -11.853,3.42 -14.739,8.886l-80.329,152.167c-2.727,5.166 -2.551,11.383 0.466,16.386c3.016,5.002 8.431,8.061 14.273,8.061l160.659,0c5.841,0 11.257,-3.059 14.273,-8.061c3.016,-5.003 3.193,-11.22 0.466,-16.386l-80.33,-152.167Z" style="fill:#2cb935;stroke:#2cb935;stroke-width:33.33px;"/><path d="M345.428,306.211c-3.112,-4.504 -8.238,-7.193 -13.713,-7.193c-5.475,-0 -10.601,2.689 -13.713,7.193l-63.313,91.649c-3.522,5.098 -3.925,11.729 -1.047,17.216c2.878,5.487 8.563,8.924 14.759,8.924l126.628,0c6.196,0 11.881,-3.437 14.759,-8.924c2.878,-5.487 2.475,-12.118 -1.046,-17.216l-63.314,-91.649Z" style="fill:#22a92b;stroke:#22a92b;stroke-width:33.33px;"/><circle cx="352.548" cy="209.333" r="37.5" style="fill:#eeb242;stroke:#eeb242;stroke-width:16.67px;"/></g><path d="M458.333,173.333c0,-22.076 -17.923,-40 -40,-40l-303.333,0c-22.077,0 -40,17.924 -40,40l0,186.667c0,22.077 17.923,40 40,40l303.333,0c22.077,0 40,-17.923 40,-40l0,-186.667Z" style="fill:none;stroke:#e4e4e4;stroke-width:33.33px;"/><path d="M101.281,404.47c-13.719,1.474 -23.66,13.809 -22.186,27.528c1.474,13.719 13.809,23.66 27.528,22.186c13.719,-1.475 23.66,-13.81 22.186,-27.529c-1.474,-13.718 -13.809,-23.66 -27.528,-22.185Z" style="fill:none;stroke:#000;stroke-opacity:0.3;stroke-width:25px;stroke-linejoin:miter;stroke-miterlimit:10;"/><path d="M426.71,112.483c13.719,-1.474 26.054,8.467 27.528,22.186c1.474,13.719 -8.467,26.054 -22.186,27.528c-13.718,1.474 -26.053,-8.467 -27.528,-22.186c-1.474,-13.719 8.467,-26.054 22.186,-27.528Z" style="fill:none;stroke:#000;stroke-opacity:0.3;stroke-width:25px;stroke-linejoin:miter;stroke-miterlimit:10;"/><path d="M128.809,426.655c166.064,-39.928 109.651,-246.715 275.715,-286.644" style="fill:none;stroke:#000;stroke-opacity:0.3;stroke-width:25px;"/><path d="M101.281,387.803c-13.719,1.474 -23.66,13.809 -22.186,27.528c1.474,13.719 13.809,23.66 27.528,22.186c13.719,-1.474 23.66,-13.809 22.186,-27.528c-1.474,-13.719 -13.809,-23.66 -27.528,-22.186Z" style="fill:none;stroke:#42acee;stroke-width:25px;stroke-linejoin:miter;stroke-miterlimit:10;"/><path d="M426.71,95.816c13.719,-1.474 26.054,8.467 27.528,22.186c1.474,13.719 -8.467,26.054 -22.186,27.528c-13.718,1.475 -26.053,-8.467 -27.528,-22.185c-1.474,-13.719 8.467,-26.054 22.186,-27.529Z" style="fill:none;stroke:#42acee;stroke-width:25px;stroke-linejoin:miter;stroke-miterlimit:10;"/><path d="M128.809,409.989c166.064,-39.929 109.651,-246.716 275.715,-286.644" style="fill:none;stroke:#42acee;stroke-width:25px;"/></g></svg>