<?xml version="1.0" encoding="UTF-8" standalone="no"?>
<!DOCTYPE svg PUBLIC "-//W3C//DTD SVG 1.1//EN" "http://www.w3.org/Graphics/SVG/1.1/DTD/svg11.dtd">
<svg width="100%" height="100%" viewBox="0 0 600 600" version="1.1" xmlns="http://www.w3.org/2000/svg" xmlns:xlink="http://www.w3.org/1999/xlink" xml:space="preserve" xmlns:serif="http://www.serif.com/" style="fill-rule:evenodd;clip-rule:evenodd;stroke-linejoin:round;stroke-miterlimit:2;">
    <g transform="matrix(1,0,0,1,-700,0)">
        <g id="user-icon-mono" transform="matrix(1,0,0,1,-2800,0)">
            <rect x="3500" y="0" width="600" height="600" style="fill:none;"/>
            <g transform="matrix(3.97935,0,0,2.90963,-312.656,-1004.83)">
                <path d="M1065.95,498.189C1065.95,466.293 1050.4,446.437 1033.5,446.437C1016.47,446.437 1001.05,466.285 1001.05,498.189C1001.05,506.371 1003.7,510 1009.68,510L1057.32,510C1063.3,510 1065.95,506.371 1065.95,498.189Z" style="fill:rgb(217,217,217);"/>
            </g>
            <g transform="matrix(0.752837,0,0,0.79246,3047.16,-50.5033)">
                <circle cx="1000" cy="300" r="90" style="fill:rgb(217,217,217);"/>
            </g>
        </g>
    </g>
</svg>
