<?xml version="1.0" encoding="UTF-8" standalone="no"?>
<!DOCTYPE svg PUBLIC "-//W3C//DTD SVG 1.1//EN" "http://www.w3.org/Graphics/SVG/1.1/DTD/svg11.dtd">
<svg width="100%" height="100%" viewBox="0 0 600 600" version="1.1" xmlns="http://www.w3.org/2000/svg" xmlns:xlink="http://www.w3.org/1999/xlink" xml:space="preserve" xmlns:serif="http://www.serif.com/" style="fill-rule:evenodd;clip-rule:evenodd;stroke-linejoin:round;stroke-miterlimit:2;">
    <g transform="matrix(1,0,0,1,-700,0)">
        <g id="user-icon-mono" transform="matrix(1,0,0,1,-2800,0)">
            <rect x="3500" y="0" width="600" height="600" style="fill:none;"/>
            <g transform="matrix(3.97935,0,0,2.90963,-312.656,-1004.83)">
                <path d="M1070.78,498.189C1070.78,470.79 1050.4,451.887 1033.5,451.887C1016.47,451.887 996.216,470.79 996.216,498.189C996.216,506.371 998.869,510 1004.85,510L1062.15,510C1068.13,510 1070.78,506.371 1070.78,498.189Z" style="fill:rgb(217,217,217);"/>
            </g>
            <g transform="matrix(0.821449,0,0,0.864683,2978.55,-66.67)">
                <circle cx="1000" cy="300" r="90" style="fill:rgb(217,217,217);"/>
            </g>
        </g>
    </g>
</svg>
